<svg xmlns="http://www.w3.org/2000/svg" viewBox="0 0 45 37.57"><defs><style>.cls-1{fill:#878787;}.cls-2{fill:#2286c7;}.cls-3{fill:#c2272d;}</style></defs><g id="Layer_2" data-name="Layer 2"><g id="Layer_1-2" data-name="Layer 1"><path class="cls-1" d="M44.64,37.57H.36A.36.36,0,0,1,0,37.2V16.08a.37.37,0,0,1,.36-.37H11.13V.36A.37.37,0,0,1,11.5,0h22a.37.37,0,0,1,.37.36V15.71H44.64a.37.37,0,0,1,.36.37V37.2A.36.36,0,0,1,44.64,37.57ZM.73,36.84H44.27V16.44H33.5a.36.36,0,0,1-.36-.36V.73H11.86V16.08a.36.36,0,0,1-.36.36H.73Z"/><path class="cls-2" d="M19.59,8.45h-6a.36.36,0,0,1-.36-.36v-6a.36.36,0,0,1,.36-.36h6a.37.37,0,0,1,.37.36v6A.37.37,0,0,1,19.59,8.45ZM14,7.73h5.25V2.48H14Z"/><path class="cls-2" d="M19.59,18.18h-6a.36.36,0,0,1-.36-.36v-6a.37.37,0,0,1,.36-.37h6a.38.38,0,0,1,.37.37v6A.37.37,0,0,1,19.59,18.18ZM14,17.46h5.25V12.21H14Z"/><path class="cls-2" d="M31.38,8.45h-6A.37.37,0,0,1,25,8.09v-6a.37.37,0,0,1,.37-.36h6a.36.36,0,0,1,.36.36v6A.36.36,0,0,1,31.38,8.45Zm-5.61-.72H31V2.48H25.77Z"/><path class="cls-2" d="M31.38,18.18h-6a.37.37,0,0,1-.37-.36v-6a.38.38,0,0,1,.37-.37h6a.37.37,0,0,1,.36.37v6A.36.36,0,0,1,31.38,18.18Zm-5.61-.72H31V12.21H25.77Z"/><path class="cls-2" d="M8.64,23.83h-6a.37.37,0,0,1-.36-.37v-6a.36.36,0,0,1,.36-.36h6a.37.37,0,0,1,.37.36v6A.38.38,0,0,1,8.64,23.83ZM3,23.1H8.28V17.85H3Z"/><path class="cls-2" d="M8.64,35.88h-6a.36.36,0,0,1-.36-.36v-6a.36.36,0,0,1,.36-.36h6a.37.37,0,0,1,.37.36v6A.37.37,0,0,1,8.64,35.88ZM3,35.15H8.28V29.91H3Z"/><path class="cls-2" d="M42.33,23.83h-6a.37.37,0,0,1-.37-.36v-6a.37.37,0,0,1,.37-.36h6a.36.36,0,0,1,.36.36v6A.36.36,0,0,1,42.33,23.83Zm-5.61-.73H42V17.86H36.72Z"/><path class="cls-2" d="M42.33,35.88h-6a.37.37,0,0,1-.37-.36v-6a.37.37,0,0,1,.37-.36h6a.36.36,0,0,1,.36.36v6A.36.36,0,0,1,42.33,35.88Zm-5.61-.73H42V29.91H36.72Z"/><path class="cls-3" d="M24.16,27.36H20.84a.36.36,0,0,1-.36-.36V24.67H18.15a.36.36,0,0,1-.36-.37V21a.36.36,0,0,1,.36-.36h2.33V18.3a.36.36,0,0,1,.36-.36h3.32a.36.36,0,0,1,.36.36v2.33h2.33a.36.36,0,0,1,.36.36V24.3a.36.36,0,0,1-.36.37H24.52V27A.36.36,0,0,1,24.16,27.36Zm-2.95-.73h2.58V24.3a.37.37,0,0,1,.37-.36h2.33V21.36H24.16a.38.38,0,0,1-.37-.37V18.66H21.21V21a.38.38,0,0,1-.37.37H18.52v2.58h2.32a.37.37,0,0,1,.37.36Z"/><path class="cls-1" d="M32.34,29.91H12.66a.37.37,0,0,1-.36-.37V28a.36.36,0,0,1,.36-.37H32.34a.36.36,0,0,1,.36.37v1.5A.37.37,0,0,1,32.34,29.91ZM13,29.18H32V28.4H13Z"/><path class="cls-1" d="M17.57,37.57H15.78a.36.36,0,0,1-.36-.37V30.72a.36.36,0,1,1,.72,0v6.12h1.07V30.72a.36.36,0,0,1,.72,0V37.2A.36.36,0,0,1,17.57,37.57Z"/><path class="cls-1" d="M29.22,37.57H27.43a.36.36,0,0,1-.36-.37V30.72a.36.36,0,0,1,.72,0v6.12h1.07V30.72a.36.36,0,0,1,.36-.36.37.37,0,0,1,.37.36V37.2A.37.37,0,0,1,29.22,37.57Z"/><path class="cls-1" d="M11.5,28.4a.37.37,0,0,1-.37-.36V17.49a.37.37,0,0,1,.37-.36.36.36,0,0,1,.36.36V28A.36.36,0,0,1,11.5,28.4Z"/><path class="cls-1" d="M11.5,35.88a.37.37,0,0,1-.37-.36v-6a.37.37,0,0,1,.37-.36.36.36,0,0,1,.36.36v6A.36.36,0,0,1,11.5,35.88Z"/><path class="cls-1" d="M33.5,28.4a.36.36,0,0,1-.36-.36V17.49a.36.36,0,0,1,.36-.36.37.37,0,0,1,.37.36V28A.37.37,0,0,1,33.5,28.4Z"/><path class="cls-1" d="M33.5,35.88a.36.36,0,0,1-.36-.36v-6a.36.36,0,0,1,.36-.36.37.37,0,0,1,.37.36v6A.37.37,0,0,1,33.5,35.88Z"/></g></g></svg>