<svg xmlns="http://www.w3.org/2000/svg" viewBox="0 0 36.64 45"><defs><style>.cls-1{fill:#2285c7;}.cls-2{fill:#868686;}.cls-3{fill:#c2282d;}</style></defs><g id="Layer_2" data-name="Layer 2"><g id="Layer_1-2" data-name="Layer 1"><path class="cls-1" d="M19.6,3l-.45-1.94a1.67,1.67,0,0,0-2.07-1L9,1.91a1.65,1.65,0,0,0-1.4,1.86l.45,1.94ZM9.15,2.57,17.21.71c.57-.12,1.19.12,1.28.54l.29,1.32L8.53,5,8.24,3.64A1,1,0,0,1,9.15,2.57Z"/><path class="cls-2" d="M7.66,24.34l20.82-4.83-.7-2.93L7,21.41Zm19.63-7L27.66,19,8.12,23.52l-.38-1.66Z"/><path class="cls-2" d="M36.62,37.89,28.44,2.82a.62.62,0,0,0-.74-.46L.47,8.68A.63.63,0,0,0,0,9.43L8.2,44.5l0,.13.08.08.17.21c.08,0,.2.08.25,0l.12,0,27.35-6.36A.63.63,0,0,0,36.62,37.89ZM8.86,44.3h0L.64,9.35,27.82,3,36,38Z"/><path class="cls-2" d="M9.56,32.73,30.38,27.9,29.68,25,8.86,29.8Zm19.67-7,.37,1.65L10.06,31.9l-.37-1.65Z"/><path class="cls-2" d="M8.61,28.52l20.82-4.84-.7-2.93L7.91,25.58Zm19.63-7,.37,1.66L9.07,27.73l-.38-1.65Z"/><path class="cls-3" d="M12.62,14.55l2.19-.49.49,2.14L18,15.58l-.5-2.14,2.15-.5L19,10.3l-2.15.49-.49-2.15-2.65.62.5,2.15-2.19.5ZM15,11.87l-.49-2.15,1.36-.33.5,2.15,2.15-.5.33,1.36-2.15.54.49,2.15-1.36.33-.5-2.15-2.19.5-.33-1.37Z"/><path class="cls-2" d="M10.55,36.9l20.83-4.83-.71-2.93L9.85,34Zm19.63-7,.37,1.65L11,36.12l-.37-1.66Z"/></g></g></svg>