<?xml version="1.0" encoding="utf-8"?>
<!-- Generator: Adobe Illustrator 26.0.1, SVG Export Plug-In . SVG Version: 6.00 Build 0)  -->
<svg version="1.1" id="Calque_1" xmlns="http://www.w3.org/2000/svg" xmlns:xlink="http://www.w3.org/1999/xlink" x="0px" y="0px"
	 viewBox="0 0 200 200" style="enable-background:new 0 0 200 200;" xml:space="preserve">
<style type="text/css">
	.st0{fill:#2185C7;}
	.st1{fill:#868686;}
	.st2{fill:#C2272D;}
</style>
<path class="st0" d="M95.6,95.6"/>
<g>
	<g>
		<path class="st0" d="M103.1,52.9l-1.1-4.7c-0.4-1.9-2.7-3-5-2.5l-19.5,4.5c-2.3,0.5-3.9,2.6-3.4,4.5l1.1,4.7L103.1,52.9z
			 M77.8,51.8l19.5-4.5c1.4-0.3,2.9,0.3,3.1,1.3l0.7,3.2l-24.8,5.8l-0.7-3.2C75.4,53.3,76.4,52.1,77.8,51.8z"/>
	</g>
	<g>
		<path class="st1" d="M74.2,104.5l50.4-11.7l-1.7-7.1L72.5,97.4L74.2,104.5z M121.7,87.5l0.9,4l-47.3,11l-0.9-4L121.7,87.5z"/>
	</g>
	<g>
		<path class="st1" d="M144.3,137.3l-19.8-84.9c-0.2-0.8-1-1.3-1.8-1.1L56.8,66.6c-0.8,0.2-1.3,1-1.1,1.8l19.8,84.9l0.1,0.3l0.2,0.2
			c0.1,0.1,0.2,0.3,0.4,0.5c0.2,0.1,0.5,0.2,0.6,0.1l0.3,0.1l66.2-15.4C144,138.9,144.5,138.1,144.3,137.3z M77.1,152.8
			C77,152.8,77,152.8,77.1,152.8C77,152.8,77,152.8,77.1,152.8L57.2,68.2L123,52.8l19.8,84.7L77.1,152.8z"/>
	</g>
	<g>
		<path class="st1" d="M78.8,124.8l50.4-11.7l-1.7-7.1l-50.4,11.7L78.8,124.8z M126.4,107.8l0.9,4l-47.3,11l-0.9-4L126.4,107.8z"/>
	</g>
	<g>
		<path class="st1" d="M76.5,114.6l50.4-11.7l-1.7-7.1l-50.4,11.7L76.5,114.6z M124,97.7l0.9,4l-47.3,11l-0.9-4L124,97.7z"/>
	</g>
	<g>
		<path class="st2" d="M86.2,80.8l5.3-1.2l1.2,5.2l6.4-1.5l-1.2-5.2l5.2-1.2l-1.5-6.4l-5.2,1.2l-1.2-5.2L88.8,68l1.2,5.2l-5.3,1.2
			L86.2,80.8z M91.9,74.3l-1.2-5.2l3.3-0.8l1.2,5.2l5.2-1.2l0.8,3.3L96,76.9l1.2,5.2l-3.3,0.8l-1.2-5.2l-5.3,1.2l-0.8-3.3L91.9,74.3
			z"/>
	</g>
	<g>
		<path class="st1" d="M81.2,134.9l50.4-11.7l-1.7-7.1l-50.4,11.7L81.2,134.9z M128.7,118l0.9,4l-47.3,11l-0.9-4L128.7,118z"/>
	</g>
</g>
</svg>
