<svg xmlns="http://www.w3.org/2000/svg" viewBox="0 0 50.53 31.97"><defs><style>.cls-1{fill:#2285c7;}.cls-2{fill:#868686;}.cls-3{fill:#c2282d;}</style></defs><g id="Layer_2" data-name="Layer 2"><g id="Layer_1-2" data-name="Layer 1"><path class="cls-1" d="M25.83.67H20.72V.35A.31.31,0,0,1,21,0h4.48a.3.3,0,0,1,.31.31Z"/><path class="cls-2" d="M10,32a5.84,5.84,0,1,1,5.82-5.86A5.84,5.84,0,0,1,10,32Zm0-11a5.19,5.19,0,1,0,5.19,5.19A5.19,5.19,0,0,0,10,20.92Z"/><path class="cls-2" d="M10,29.14a3,3,0,1,1,3-3,.31.31,0,0,1-.32.31.33.33,0,0,1-.31-.31A2.36,2.36,0,1,0,10,28.51a.31.31,0,0,1,.31.31A.31.31,0,0,1,10,29.14Z"/><path class="cls-2" d="M39.12,32a5.84,5.84,0,1,1,5.82-5.86A5.85,5.85,0,0,1,39.12,32Zm0-11a5.19,5.19,0,1,0,5.19,5.19A5.19,5.19,0,0,0,39.12,20.92Z"/><path class="cls-2" d="M39.12,29.14a3,3,0,1,1,3-3,.3.3,0,0,1-.31.31.31.31,0,0,1-.32-.31,2.36,2.36,0,1,0-2.36,2.36.31.31,0,0,1,.32.31A.34.34,0,0,1,39.12,29.14Z"/><path class="cls-2" d="M14.08,14.59a.29.29,0,0,1-.24-.12L11.76,11.8a.36.36,0,0,1,0-.4L17.46,3a.41.41,0,0,1,.27-.16H24.3a.31.31,0,0,1,.31.32V14.23a.31.31,0,1,1-.62,0V3.5H17.85l-5.46,8.1,1.92,2.48a.35.35,0,0,1,0,.47A.27.27,0,0,1,14.08,14.59Z"/><path class="cls-2" d="M43.57,14.59a.32.32,0,0,1-.32-.32V3.5H26.19V14.31a.32.32,0,1,1-.63,0V3.15a.31.31,0,0,1,.31-.32H43.61a.31.31,0,0,1,.31.32V14.27A.38.38,0,0,1,43.57,14.59Z"/><path class="cls-1" d="M3,25.83H.31A.31.31,0,0,1,0,25.52V20.6a.31.31,0,0,1,.31-.31H3a.3.3,0,0,1,.31.31.33.33,0,0,1-.31.32H.63v4.25H3a.3.3,0,0,1,.31.31A.34.34,0,0,1,3,25.83Z"/><path class="cls-1" d="M50.21,25.83H46.16a.31.31,0,0,1-.31-.31.31.31,0,0,1,.31-.32H49.9V21H46.16a.31.31,0,0,1-.31-.32.34.34,0,0,1,.31-.31h4.05a.31.31,0,0,1,.32.31v4.92A.33.33,0,0,1,50.21,25.83Z"/><path class="cls-1" d="M46.12,25.83h-.19a.31.31,0,0,1-.32-.31.32.32,0,0,1,.32-.32h.19a.32.32,0,0,1,.32.32C46.48,25.68,46.32,25.83,46.12,25.83Z"/><path class="cls-1" d="M32.28,25.83H16.87a.31.31,0,0,1-.32-.31.32.32,0,0,1,.32-.32H32.28a.32.32,0,0,1,.32.32A.33.33,0,0,1,32.28,25.83Z"/><path class="cls-1" d="M3.18,25.83H2.91a.3.3,0,0,1-.31-.31.31.31,0,0,1,.31-.32h.27a.32.32,0,0,1,.32.32A.31.31,0,0,1,3.18,25.83Z"/><path class="cls-1" d="M3.58,20.92H2.24a.31.31,0,0,1-.31-.32V16.79A5.28,5.28,0,0,1,5.62,12l4.29-1.18,5.19-8C16.44.47,19.39.08,21,0a.31.31,0,0,1,.31.31A.29.29,0,0,1,21,.63c-1.5,0-4.17.43-5.39,2.48l-5.23,8.18a.23.23,0,0,1-.2.11l-4.4,1.22a4.59,4.59,0,0,0-3.22,4.21v3.46h1a.32.32,0,0,1,0,.63Z"/><path class="cls-1" d="M48.25,20.92H46.12a.31.31,0,0,1-.31-.32.34.34,0,0,1,.31-.31h1.81V7.51A6.53,6.53,0,0,0,41.44.67H25.56a.32.32,0,1,1,0-.63H41.44a7.15,7.15,0,0,1,7.12,7.47V20.6A.29.29,0,0,1,48.25,20.92Z"/><path class="cls-3" d="M36.49,13.25H33.23a.31.31,0,0,1-.32-.31V10.58H30.55a.31.31,0,0,1-.31-.32V7a.3.3,0,0,1,.31-.31h2.36V4.29A.32.32,0,0,1,33.23,4h3.26a.31.31,0,0,1,.31.32V6.65h2.36a.31.31,0,0,1,.32.31v3.26a.32.32,0,0,1-.32.32H36.8V12.9A.32.32,0,0,1,36.49,13.25Zm-3-.63h2.64V10.26a.31.31,0,0,1,.31-.31h2.36V7.31H36.49A.3.3,0,0,1,36.18,7V4.64H33.54V7a.3.3,0,0,1-.31.31H30.87V10h2.36a.31.31,0,0,1,.31.31Z"/><path class="cls-2" d="M47,15.65H4.44a.32.32,0,0,1,0-.63H47a.31.31,0,0,1,.31.32C47.3,15.49,47.15,15.65,47,15.65Z"/><path class="cls-2" d="M47,17.62H3.81a.31.31,0,0,1-.31-.32A.33.33,0,0,1,3.81,17H47a.3.3,0,0,1,.31.31A.31.31,0,0,1,47,17.62Z"/></g></g></svg>