<svg id="Layer_1" data-name="Layer 1" xmlns="http://www.w3.org/2000/svg" viewBox="0 0 1570.14 258.77"><defs><style>.cls-1{fill:#fdfbe8;}.cls-2{fill:#c1282e;}.cls-3{fill:#2385c5;}.cls-4{fill:#2384c5;}.cls-5{fill:#c22a30;}.cls-6{fill:#c22b31;}.cls-7{fill:#c22c32;}.cls-8{fill:#c22b30;}.cls-9{fill:#2484c4;}.cls-10{fill:#c32d33;}.cls-11{fill:#c22c31;}.cls-12{fill:#c32e33;}.cls-13{fill:#f6e4e4;}.cls-14{fill:#e2eef7;}.cls-15{fill:#fefefe;}.cls-16{fill:#fcf7f7;}</style></defs><path class="cls-1" d="M327.38,121.81l-41.91.23a17,17,0,0,1-2-.24c0-.12,0-.24,0-.36V31.64c0-.35,0-.7-.07-1.18H211.94c-.44,0-.88,0-1.32.06,0-.52,0-1,0-1.55q0-20.88,0-41.76c.43,0,.87.1,1.31.1h71.58v-89.66c0-.52,0-1,0-1.55h43.8c0,.56,0,1.12,0,1.68V-12.7h59.13A16.56,16.56,0,0,1,387-3.51c-.91,4.45-2.08,8.84-3.12,13.26-.59,2.48-1.19,5-.59,7.55a61.6,61.6,0,0,0,2,6.49c.8,2.24,1.77,4.43,2.67,6.64l-1.44,0h-59.2V120C327.34,120.62,327.37,121.21,327.38,121.81Z" transform="translate(-210.58 107.59)"/><path class="cls-2" d="M388,30.43c-.9-2.21-1.87-4.4-2.67-6.64a61.6,61.6,0,0,1-2-6.49c-.6-2.54,0-5.07.59-7.55,1-4.42,2.21-8.81,3.12-13.26a16.56,16.56,0,0,0-.54-9.19A8.47,8.47,0,0,0,378.06-20a36.4,36.4,0,0,0-10.17,1.35c-2.68.65-5.09.46-7-1.95a5.89,5.89,0,0,0-2.77-1.51,22.49,22.49,0,0,0-3.3-.54c-2.85-.45-5.06-1.85-6.09-4.6-.85-2.27-1.45-4.63-2.08-7a8.09,8.09,0,0,1-.12-2.15c0-3.69,2.49-5.6,6-4.59a8.48,8.48,0,0,0,8.86-2.43,25.73,25.73,0,0,0,2.73-3.33c1.34-1.88,2.53-3.88,3.9-5.75a13.41,13.41,0,0,1,11.23-5.86,27.26,27.26,0,0,0,3.93-.3,5.06,5.06,0,0,0,4.52-6c-.12-1-.37-2-.47-3a48.59,48.59,0,0,1-.58-6.77c.1-3.36,1.69-6.2,3.76-8.94.44,2,.76,3.94,1.26,5.78a23.05,23.05,0,0,0,8.4,12.88l5,4.15,1.18,1.3.51.8.32.72,2.52,6.73L410-50l2,4.16.25.46c.71,1.22,1.43,2.43,2.14,3.64l.26.44c.48.73.95,1.46,1.43,2.18l.44.62a71.69,71.69,0,0,0,13.08,14.36A1.64,1.64,0,0,0,430-24l.76.7c4,3.32,6.37,8,9.78,11.74a77,77,0,0,1,6.28,8.09c1.36,2,2.13,4.41,3.46,6.45,1.65,2.52,3.68,4.78,5.39,7.26q3,4.39,5.75,9c2.76,4.61,6.67,8.19,10.43,11.91,5.3,5.23,10.55,10.51,14.53,16.88a35.42,35.42,0,0,1,5.09,13.53c.58,3.71,1.3,7.4,1.84,11.12.37,2.59.51,5.21.79,7.82.49,4.48,1,9,1.51,13.5a18.28,18.28,0,0,0,7.92-1.37A28.73,28.73,0,0,0,512.68,87,51.64,51.64,0,0,0,523,74.64a25.64,25.64,0,0,0,2.43-6.91,10.86,10.86,0,0,1,1.28-2.39l.5.09a20.49,20.49,0,0,1,.41,2.32,23,23,0,0,1-3.3,12.82C520.1,88.18,516.09,96,510.9,103a47.9,47.9,0,0,1-12.15,11.31c-1.37.93-2.77,1.82-4.06,2.67a37.24,37.24,0,0,1,2.27,4.44c1.63,4.62.49,8.8-2.46,12.55a18,18,0,0,1-11.41,6.47,27.49,27.49,0,0,1-8.91-.12,44.71,44.71,0,0,1-15-5.18,53.45,53.45,0,0,0-14-5.29,57.72,57.72,0,0,0-8.19-1.07,44.8,44.8,0,0,0-7,0,63.21,63.21,0,0,0-7.38,1.13,50.81,50.81,0,0,0-13.46,4.92c-3,1.59-6.22,3-8.63,5.59a14,14,0,0,0-1.73,2.25c-.48.77-1,1.21-2,.93-.87-.85-.8-1.59.17-2.95a18.68,18.68,0,0,1,5.86-4.93,51.48,51.48,0,0,1,11.68-5.61,68.63,68.63,0,0,1,9.64-2.41,90.11,90.11,0,0,1,11.61-.94c6.31-.16,12.27,1.61,18.14,3.72,5.48,2,10.92,4.05,16.48,5.74a23.7,23.7,0,0,0,14.64,0,10.54,10.54,0,0,0,6.68-5.7,9.57,9.57,0,0,0-.94-9.29c-.18-.29-.4-.56-.58-.81l-4.69,1.24a3.94,3.94,0,0,1-1,.14c-2.57-.07-5.14-.23-7.72-.22-5.77,0-11.53.19-17.3.25-3.68,0-7.35-.06-11,0-2.15,0-4.3.21-6.46.06,1-.56,2-1.21,3.08-1.67a6.51,6.51,0,0,1,2.3-.51c1.79-.07,3.58,0,5.37,0A84.89,84.89,0,0,0,476.27,116c1.77-.55,2-.91,2.06-2.92,4.89.69,9,2.7,12,7.17l4-3c-3.41-4.92-8.23-6.77-13.77-7.71a8.07,8.07,0,0,1,0-2.09,28.45,28.45,0,0,0,.77-10.67c-.45-4.56-.89-9.12-1.42-13.67-.2-1.69-.62-3.36-.93-5a7.77,7.77,0,0,0-3.41-5.29,56,56,0,0,0-5.84-3.2c-2.58-1.25-5.22-2.37-7.83-3.56A5.32,5.32,0,0,1,459,62.55a9.08,9.08,0,0,0-4.06-5.2l0-.73-.75-.13c-.07-1.25-.14-2.43-.19-3.61a4.51,4.51,0,0,1,1.35-3.32c2.16-2.43,3.21-5.17,2.08-8.46a2.17,2.17,0,0,1,.19-1.35,14.36,14.36,0,0,0,.14-11.16,2.25,2.25,0,0,0-.33-.46c-.92-.32-1.4.14-1.71.88-.67,1.61-1.33,3.23-2,4.74l-5.24-3.63.79-1.12-.15-.17-.85.43.21-1.61-.2-.07c-.36.81-.72,1.62-1.05,2.34l-3.21,1.21a12.91,12.91,0,0,0-6.52-1.27,2.41,2.41,0,0,0-2.51,2.05c-.15.65-.4,1.29-.63,2-2,.66-4,1.36-5.43,3.11-.07.1-.14.19-.2.29l-.18.14.09.09.14-.17.27-.21c1.09-.65,2.17-1.33,3.28-1.94a3.63,3.63,0,0,1,1.76-.38C430.3,37.74,427,41,425.35,45.63l-.32.49.2.15.33-.44a26.7,26.7,0,0,1,6.31-8.26c.37-.31.77-.57,1.15-.85l.19.22c-1.71,2.28-3.48,4.52-4.25,7.38l3.12-5.23.54.24c-.41,1.4-.79,2.8-1.23,4.19s-1,2.75-1.31,4.17a23.59,23.59,0,0,0,2.9-7.46,21.82,21.82,0,0,1,1.44,2,4.25,4.25,0,0,1,.73,1.95,4.69,4.69,0,0,0,1,3.09,4.78,4.78,0,0,1-.89,6.69c-.78,3.13-.79,6.27-3,8.73l-.34-.42-1.58,1.29.6.64-1.35.15L430.7,66l-.42.83h.13c-.13,1.32-.21,2.65-.42,4a12.91,12.91,0,0,0,1.11,8.25,2.72,2.72,0,0,1-.15,2.84,10.29,10.29,0,0,0-1.34,4.52c-.51,5.68-1.13,11.34-1.68,17-.2,2-.26,4.13-.53,6.17a9.14,9.14,0,0,1-2.6,4.73c-2.19-.34-3.18,1.07-3.87,2.87a2.27,2.27,0,0,0,1.44,3.23c3,1.13,4.72.61,6.72-1.85a6.71,6.71,0,0,1,2-1.69c1.67-.89,1.92-2.47,2.08-4,.22-2.05.09-4.14.37-6.17.61-4.37,1.25-8.74,2.13-13.06a46.39,46.39,0,0,1,2.2-6.21l.48.14c-.3,1.78-.66,3.55-.89,5.33a53.39,53.39,0,0,0-.57,6.17,6.45,6.45,0,0,0,3.18,5.69c1.37.87,5,0,5.81-1.31.68-1.09.37-2.76-.78-4.2-1.29-1.63-2.39-3.36-2-5.55a17.49,17.49,0,0,1,1.4-4.19c.42.85.84,1.71,1.28,2.56a29.69,29.69,0,0,0,1.48,2.72A9.52,9.52,0,0,1,448.61,98a18.18,18.18,0,0,0,4.24,8.34l1.18,1.32c-2.33-.14-4.41.41-6.31-.66-2.64-1.49-4.71-.37-6.92,1.5l.65,2a52.56,52.56,0,0,0,5.66,1.85,39.2,39.2,0,0,0,5,.37,6,6,0,0,1,1.69.49,21.47,21.47,0,0,1-8.72.7c-3.47-.59-6.21.9-8.79,2.92-1.76,1.38-1.8,1.48-1.64,3.28l1.73,1.56.83.28,0,.19h-2.29c-9.67,0-19.34,0-29,.09-2.3,0-4.6.49-6.9.7a2.62,2.62,0,0,1-2.51-.94l-.2-.22,0,0c0-.19-.1-.38-.17-.57-1.06-3.09-.2-5.2,2.67-6.74a9,9,0,0,0,1.5-1.28c1-2.35,2.54-3.21,5.11-2.73,1.84.35,3.63.93,5.47,1.28,2.74.52,3.87-.65,3.27-3.39-.39-1.79-.94-3.55-1.5-5.29a19,19,0,0,1-.52-10,27,27,0,0,1,2-5.11,7.34,7.34,0,0,0-.53-7.41c-2.18-3.29-4.5-6.49-6.83-9.67-1-1.34-2.24-1.33-2.92.18-1.4,3.14-2.51,6.41-3.74,9.62-.33,2-.77,4-.94,6-.31,3.53-1.27,6.71-4.36,8.78a16,16,0,0,0-4.76,5,29.79,29.79,0,0,1-5,5.92,12.69,12.69,0,0,0-2.7,3.85c-1,2.09-1.56,4.35-2.39,6.51a9.21,9.21,0,0,1-4.11,5.11,17.45,17.45,0,0,1-6.34.75c-1.82-.11-3.64-.3-5.45-.26-2.6.07-5.2.43-7.79.45-2.2,0-4.4-.3-6.6-.45-.63,0-1.28,0-1.91-.09a2.8,2.8,0,0,1-.77-.39c-.37-1.14-.76-2.27-1.11-3.41a5.81,5.81,0,0,1,1.29-6,17.4,17.4,0,0,1,4.23-3.23,23.18,23.18,0,0,1,9.5-2.19c3.74-.25,7.38-.85,10.65-2.84a7.58,7.58,0,0,0,3.41-4c.64-1.85,1.42-3.65,2-5.51a50.87,50.87,0,0,0,1.86-6.92c.57-3.56,1.14-7.07,2.84-10.32a13.2,13.2,0,0,0,.93-3.21c.39-1.67.6-3.38,1.09-5q2.46-8.27,5.08-16.47C391.12,45.12,390.57,37.75,388,30.43Zm62.34-2.89-.33-.25-.86,1.46.32.2ZM430,48.05l-.05,0v.09Z" transform="translate(-210.58 107.59)"/><path class="cls-3" d="M283.52-103.89c0,.52,0,1,0,1.55v89.66H211.91c-.44,0-.88-.07-1.31-.1q0-33.69,0-67.37,0-11.27,0-22.54v-1.41h71.54A8.11,8.11,0,0,1,283.52-103.89Z" transform="translate(-210.58 107.59)"/><path class="cls-3" d="M210.62,30.52c.44,0,.88-.06,1.32-.06h71.48c0,.48.07.83.07,1.18v89.8c0,.12,0,.24,0,.36-.52,0-1,0-1.56,0H210.67c0-.3,0-.49,0-.68Z" transform="translate(-210.58 107.59)"/><path class="cls-4" d="M400.08-64.57a23.05,23.05,0,0,1-8.4-12.88c-.5-1.84-.82-3.73-1.26-5.78-2.07,2.74-3.66,5.58-3.76,8.94a48.59,48.59,0,0,0,.58,6.77c.1,1,.35,2,.47,3a5.06,5.06,0,0,1-4.52,6,27.26,27.26,0,0,1-3.93.3A13.41,13.41,0,0,0,368-52.44c-1.37,1.87-2.56,3.87-3.9,5.75a25.73,25.73,0,0,1-2.73,3.33,8.48,8.48,0,0,1-8.86,2.43c-3.54-1-6,.9-6,4.59a8.09,8.09,0,0,0,.12,2.15c.63,2.34,1.23,4.7,2.08,7,1,2.75,3.24,4.15,6.09,4.6a22.49,22.49,0,0,1,3.3.54,5.89,5.89,0,0,1,2.77,1.51c1.93,2.41,4.34,2.6,7,1.95A36.4,36.4,0,0,1,378.06-20a8.47,8.47,0,0,1,8.41,7.27H327.34v-89.52c0-.56,0-1.12,0-1.68a7.92,7.92,0,0,1,1.25-.2h71.48c0,.44.07.75.07,1.06q0,18.94,0,37.89A5.85,5.85,0,0,1,400.08-64.57Z" transform="translate(-210.58 107.59)"/><path class="cls-4" d="M388,30.43c2.59,7.32,3.14,14.69.74,22.19q-2.62,8.21-5.08,16.47c-.49,1.64-.7,3.35-1.09,5a13.2,13.2,0,0,1-.93,3.21c-1.7,3.25-2.27,6.76-2.84,10.32a50.87,50.87,0,0,1-1.86,6.92c-.58,1.86-1.36,3.66-2,5.51a7.58,7.58,0,0,1-3.41,4c-3.27,2-6.91,2.59-10.65,2.84a23.18,23.18,0,0,0-9.5,2.19,17.4,17.4,0,0,0-4.23,3.23,5.81,5.81,0,0,0-1.29,6c.35,1.14.74,2.27,1.11,3.41l-19.57,0c0-.6,0-1.19,0-1.79V30.46h59.2Z" transform="translate(-210.58 107.59)"/><path class="cls-5" d="M751.49-48.62c-2.14-2.51-4.1-2.78-6.79-1.55-8.68,3.94-17.48,7.63-26.24,11.4a11.15,11.15,0,0,1-1.74.5l-7.09-8.94c13.37-3.72,27.2-7.56,38.28-17.64H730.09v-10h60v9.75H765.15L757-57.57l12.32,13.49,22.53-16.8,10.42,8.35-15.69,9.36c3,14.59,12.65,22.45,24.85,27.55L802.52-3.47c-12.63-7.75-21.46-18.46-24.64-33.86l-4.39,2.72c0,6.44.41,12.36-.1,18.19-.85,9.88-6.55,16.06-16,18.87-2,.59-4,1.23-6.14,1.92L745.82-8.39c6.39.59,12.63-.09,15.79-6.63,1.63-3.38,2.62-7.35.65-11.53C748.55-13.74,732.68-5.31,715.7.61L708.26-9.66c19.32-4.73,37.36-12.38,51.06-28.07L758-39.9c-.2-.33-.42-.65-.7-1.06-13,8.65-25.71,17.23-40.37,22.19L710.34-28C725.2-31.69,739.73-37.08,751.49-48.62Z" transform="translate(-210.58 107.59)"/><path class="cls-6" d="M1181.18-83.94h36.67v55.06h-11.73v-7.07h-25.37V3.4h-12.41V-36H1142v7.19H1130.9V-84.12h38c-.31-7.3-.61-14.48-.92-21.86h12.65v21.59Zm-12.51,37.48V-74.39h-26.33v27.93Zm12-28v27.93h25.47V-74.49Z" transform="translate(-210.58 107.59)"/><path class="cls-7" d="M1048.22-41.21v2.31H1075V5.16h-9.41c-.09-1.38-.18-2.75-.28-4.24h-63.22c-.07,1.39-.13,2.69-.24,4.78l-9.26.42v-45h26c.09-1.22.16-2.2.24-3.19H979.25v-7.16h3.34l57.85,0c.66,0,1.33-.1,2-.16l42,0h3.84v7.57h-6.7c-.21-.15-.42-.45-.63-.45q-15.84-.06-31.69,0C1048.93-42.31,1048.58-41.59,1048.22-41.21ZM1008.86-17.3c-1.54-2.4-3-4.74-4.48-7,5-1.1,10.18-2,13.92-7.19h-16.14v15.72h63.66v-3c-1.08,0-2,0-3,0-6.12-.2-12.25-.17-18.34-.7-4.1-.35-5.16-2-5.18-6.08v-6h-12C1025-23.55,1018.83-18.9,1008.86-17.3Zm57,7.47h-63.75v3.58h63.75Zm0-21.56h-17.65v4.2c5.79,2.37,11.69,1.56,17.65,1.13Zm-26.63-7.48v-3.29h-11.33c.06,1.21.11,2.21.16,3.29Z" transform="translate(-210.58 107.59)"/><path class="cls-6" d="M951.87-9.61c-2.5,3.7-4.9,7.24-7.29,10.76-5.52-4.73-15.29-15.33-23.8-36.23-4,13.51-8.36,26.88-16.41,39l-6.73-7.46c-.22,2.28-.35,3.65-.5,5.23h-9.29l-.41-4.91H860V2H849.92V-28.18H897.6v22c3.23-2.53,5.07-6.07,6.77-9.63a81.87,81.87,0,0,0,7.45-27.63c.54-5.49,1.36-11,2.07-16.55H901.56V-69.4l12.83.6v-36.67h10.08v36.34h22.18v8.74H925.33C925.92-39,937.5-19.72,951.87-9.61ZM888-19.74h-27.9v8.17H888Z" transform="translate(-210.58 107.59)"/><path class="cls-8" d="M564.79,2.16V-8H614v-8.78H577.56v-9.68h36.31v-7.72H570.66v-9.6H668.1v9.6H625.26v7.74h37.57v9.66h-37.6v8.72h48V2.16Z" transform="translate(-210.58 107.59)"/><path class="cls-6" d="M600.25-94.29c1.09-4.28,2.2-8.67,3.38-13.3l15.51,3.74c-2.54,3.13-5,6.13-7.72,9.52h47.37v43.62H581.08V-94.29Zm-8.51,17.75h56.19v-8.85H591.74Zm0,16.74H648v-7.94H591.77Z" transform="translate(-210.58 107.59)"/><path class="cls-9" d="M375.81,121.78a9.21,9.21,0,0,0,4.11-5.11c.83-2.16,1.43-4.42,2.39-6.51a12.69,12.69,0,0,1,2.7-3.85,29.79,29.79,0,0,0,5-5.92,16,16,0,0,1,4.76-5c3.09-2.07,4.05-5.25,4.36-8.78.17-2,.61-4,.94-6,0,.52.06,1,.06,1.56q0,14.49,0,29c0,.67.08,1.34.13,2a9,9,0,0,1-1.5,1.28c-2.87,1.54-3.73,3.65-2.67,6.74.07.19.12.38.17.57Z" transform="translate(-210.58 107.59)"/><path class="cls-10" d="M1030.35-59.23a28.81,28.81,0,0,1,3.1.21c2,.35,4.07.8,6.11,1.21,0,.36,0,.73,0,1.09L1038-57.5v6H987.6v-52.87h51.5c-.46,2.69.54,5.45-.46,7.39h-21.35l2.89,2.14L1016.89-92c7.06,2,13.86-.47,20.73.4v6.54h-12.85v5.29h14.61v6.9h-13.07l11.37,7.36-7.36,5.49-9.07-8.32-13,8.56-2.08-.51L1001-66c4.6-1.65,9.27-2.86,13.1-7.08H999v-6.87h6l.21-.56-5.92-3.86,9.83-11.44-.05-1.21L997-97l-.47.48v36.86l.47.45,9.22,0,2.51,0Zm-20.07-25.65-4.49,5h10.49v-5Z" transform="translate(-210.58 107.59)"/><path class="cls-5" d="M796.05-82.55h-72l-.58.47v15.77c-3.91,1.86-7.9.47-11.91,1V-92.68h42.56c-.94-3.33-1.83-6.47-2.78-9.8l12.67-2.18c1.21,4,2.38,7.9,3.62,12h40.46V-67.3H796.56V-82.08Z" transform="translate(-210.58 107.59)"/><path class="cls-11" d="M847.06-74.47h52.05v33.53H847.06ZM868.4-49.08v-5.1H856.91v5.1Zm20.85-5.1H878.18v5.09h11.07ZM857-61.49h11.43v-4.82H857Zm21.24,0h11v-4.79h-11Z" transform="translate(-210.58 107.59)"/><path class="cls-5" d="M1294-69.26h11.39v12.35c0,13,.08,26.09,0,39.13,0,5.8,1.83,5.94,5.93,6.41a77.24,77.24,0,0,0,12.36.1c4.77-.22,7-3.62,8.38-7.64.84-2.49,1.27-5.11,1.85-7.54l11.89,7c-.84,4.66-2,10-5.45,14.26a14.49,14.49,0,0,1-6.86,4.14c-7.35,2.19-15,2-22.6,1.78a39.26,39.26,0,0,1-9.64-1.65c-4.89-1.39-7.2-4.69-7.21-9.72q0-20.85,0-41.72Z" transform="translate(-210.58 107.59)"/><path class="cls-5" d="M583,87.9c0,5.64-.19,11.27-.07,16.91.11,5.45.5,10.9.77,16.59H564.79A466.06,466.06,0,0,0,564.94,45h3.82c10.23,0,20.47-.07,30.7,0,8.74.07,16.57,6.18,18,13.84,1.86,10.26-3,19.84-11.79,23.22-1.51.58-3,1.19-5.39,2.14l23.58,37.28h-20.3q-9.53-16.83-19-33.61c-.27-.47-.54-.94-1.26-2.17Zm.09-6.89c5,1.44,11.32-.4,14.23-4.05,3.69-4.64,4.51-16,1.26-21.09-3.65-5.66-9.62-4.39-15.07-5.1a12.15,12.15,0,0,0-.41,2C583.06,62.11,583.07,71.42,583.07,81Z" transform="translate(-210.58 107.59)"/><path class="cls-11" d="M1510.15,48.48c-.92,3.83-1.81,7.48-2.87,11.86-3-2.33-5.6-4.65-8.48-6.66-8.21-5.73-23.47-4-29.69,5.08-10.08,14.66-10.67,30.24-2.68,45.93,4.88,9.57,17.74,14.34,28.17,10.76,5-1.72,9.65-4.36,14.38-6.54.36,7.89-2,11.08-9.63,12.7-12.08,2.56-23.91,2.84-35.67-2.23-9.72-4.18-16.21-11.08-19.13-20.89-4.16-14-2.7-27.78,5.88-39.87a34.21,34.21,0,0,1,21.91-14c12-2.29,23.85-2.13,35.36,2.54A23.2,23.2,0,0,1,1510.15,48.48Z" transform="translate(-210.58 107.59)"/><path class="cls-7" d="M906.83,121.61c-2.62,0-5.5,0-8.38,0a4.5,4.5,0,0,1-1.13-.3L867.11,44.85h19.61l19.64,54.61,1.16.21q10.32-27.21,20.66-54.49l9.52-.52C927.46,70.19,917.24,95.65,906.83,121.61Z" transform="translate(-210.58 107.59)"/><path class="cls-6" d="M1181.48,68.27h15.72c-.13,1.92-.25,3.62-.44,6.48,1.63-1.47,2.57-2.26,3.45-3.13,6.37-6.28,17.36-7.22,24.76-2.16,4.46,3,6.1,7.81,6.25,12.6.42,13,.15,26.05.15,39.32h-16.19c-1.4-14.31,4-29-1.86-42.54-9.63-4.76-15.3-1.74-15.76,8.25-.44,9.42-.08,18.87-.07,28.3v6h-16Z" transform="translate(-210.58 107.59)"/><path class="cls-8" d="M1598.37,121.41H1581.9V68.23h15.62c.13,1.82.25,3.64.43,6.17,2.1-1.87,3.66-3.55,5.49-4.86,6-4.27,12.51-4,19-1.75,6.09,2.12,8.9,7.11,9.08,13.22.32,11,.13,22.09.24,33.14,0,2.29.4,4.57.65,7.18h-17.33c.38-4.14,1-8.25,1.11-12.37.28-7.12.87-14.3.31-21.37-.64-8-4.73-12.11-10.85-11.26-4.3.59-7.87,5.92-7.84,12.49.06,10.26.45,20.53.69,30.8A16.64,16.64,0,0,1,1598.37,121.41Z" transform="translate(-210.58 107.59)"/><path class="cls-6" d="M1039.55-56.72c0-.36,0-.73,0-1.09L1051.67-60l.15-.83-8.2-6.93,4.46-3.34c-.11-.37-.23-.73-.35-1.09h-6.15v-7.44l5.12-.69h0l.9.47h34.61a46.39,46.39,0,0,1-13,18.36c6.09,2.58,12.15,2,17.84,1.94-.89,3.19-1.78,6.41-2.67,9.63-8.47-.19-16.27-2.82-23.69-6.64a54.16,54.16,0,0,1-5.54,2.62c-4.19,1.44-8.45,2.67-12.68,4C1041.51-52.23,1040.53-54.48,1039.55-56.72Zm12-16.07-.42.66,9.57,7.67,8.1-7.65-.48-.68Z" transform="translate(-210.58 107.59)"/><path class="cls-6" d="M657.6,123.21c-6.61,1.29-12.81-2-18.23-6.1a19.8,19.8,0,0,1-6.62-9.88c-2.77-10-2.64-20,3.39-29.18,4-6,9.16-10.14,16.37-11.16,8.12-1.15,16.12-.93,23.28,3.88,8.67,5.82,10.8,14.71,10.64,24.27-.13,7.93-2.38,15.29-8.4,21C672.51,121.33,665.94,123.62,657.6,123.21Zm12.63-29.84c-.75-4.89-1.25-9.93-2.37-14.82-.91-4-3.47-6.82-7.93-7.14s-7.1,2.33-8.79,6.08c-3.79,8.44-3.58,17.36-2.61,26.23a27.3,27.3,0,0,0,3.22,10.43c3.48,6.06,10.65,5.78,14.26-.22a13.56,13.56,0,0,0,1.82-4.53C668.74,104.16,669.42,98.89,670.23,93.37Z" transform="translate(-210.58 107.59)"/><path class="cls-11" d="M1294.65,117.91c.89,4-2.45,3.73-4.25,4.2-9.66,2.52-11,1.84-17.17-5.71-4.5,5.5-10.37,7.43-17.38,6.87-5.33-.43-10.52-4-12-9.1-2.47-8.48-.3-16.83,9.89-20.1,4.62-1.48,9.3-2.77,14-4.08,2.8-.79,5.66-1.94,5.65-5.18s-1.32-6.64-4.59-8.45c-6.52-3.62-12.25-1.08-17.8,2.47-.68.43-1.27,1-2.72,2.22-.55-2.88-1-5.2-1.43-7.44a33.61,33.61,0,0,1,28.54-6.4c8.67,1.81,12.73,7.54,13,15.88.25,9.33-.11,18.67-.07,28C1288.26,116.17,1289.32,117.21,1294.65,117.91Zm-21.17-24.62c-3.23,1.29-6,2.17-8.5,3.43-5.15,2.57-7.76,8.17-5.72,13.43a10,10,0,0,0,5.28,5.44c3,1,5.89-.92,7.41-3.86a12.78,12.78,0,0,0,1.47-5C1273.62,102.44,1273.48,98.19,1273.48,93.29Z" transform="translate(-210.58 107.59)"/><path class="cls-6" d="M802.23,118.05c.37,3.7-2.61,3.88-4.52,4.27-6.72,1.35-10,3.29-17-5.84-4.46,5.3-10.19,7.43-17.06,6.76-5.31-.51-9.61-2.33-11.73-7.65-2.29-5.73-2.49-11.15,1.57-16.35,3.62-4.62,8.89-5.62,14-7.09,4-1.15,8-2.35,11.54-3.4,2.61-3.52,2.25-6.66.2-9.49-2.81-3.86-8.39-5.72-12.67-4.12-3.59,1.33-7,3.25-10.77,5.06l-1.48-6.41c8.84-7.22,18.79-8.94,29.44-6.41,7.69,1.84,11.91,7.47,12.05,15.45.15,8.23-.06,16.48-.12,24.72,0,1,0,1.92,0,2.88C795.8,116,796.74,117.14,802.23,118.05ZM780.9,93.42c-2.75,1-4.94,1.73-7.06,2.63-6.33,2.71-8.86,8.07-7,14.69,1.37,4.89,6.47,6.89,10.2,3.55a12.26,12.26,0,0,0,3.7-6.89C781.32,103,780.9,98.41,780.9,93.42Z" transform="translate(-210.58 107.59)"/><path class="cls-12" d="M1733.83,94.88h-31.49c-1.64,7.39,2.15,17.25,7.78,19.86,7.44,3.45,14.19.1,21.38-4-.67,5.1-1.68,8.5-5.86,10-11.72,4.32-23.16,4.27-33-4.07-3.36-2.84-5.81-7.66-7-12-2.66-10.11-1.81-20.1,4.51-29a18.91,18.91,0,0,1,10-7.69,35.12,35.12,0,0,1,19.3-.6c7.85,1.93,13.85,10.34,14.37,19.79C1733.94,89.5,1733.83,91.83,1733.83,94.88Zm-14.53-5.39c-1.13-5.1-1.65-9.87-3.3-14.21-1.94-5.13-8-5.63-10.49-.78-2.25,4.45-3.15,9.59-4.83,15Z" transform="translate(-210.58 107.59)"/><path class="cls-12" d="M1565.74,110.91c1.52,2.48.36,6.91-2.54,8.51a25.2,25.2,0,0,1-8.64,3.33c-8.37,1.06-16.55,1.07-24.07-4.18a23,23,0,0,1-9.93-17.17c-.77-7.39-1-14.93,2.77-22.11,3.64-7,9-11.38,16.5-12.43,8.94-1.24,17.91-1.25,24.35,6.85,4.86,6.13,5.57,13.27,5.17,21.25H1537C1537.11,116.34,1551.6,121.19,1565.74,110.91Zm-10.91-21.4c-1-5-1.52-9.53-3-13.68-.69-1.87-3.45-4.11-5.29-4.13-2.08,0-5,1.78-6.1,3.64a21.89,21.89,0,0,0-2.83,14.17Z" transform="translate(-210.58 107.59)"/><path class="cls-12" d="M1088.17,94.88h-32.61c1,7.81,1.41,15.09,8.43,19.44,5.42,3.36,13.13,2,20.59-3.21,1.56,2,.38,6.68-2.35,8.29-13.54,8-37.82,5.54-42.75-16.14a59,59,0,0,1-.75-7.88c.41-10.46,2.82-20.21,12.33-26.06,5.85-3.6,12.83-3.82,19.36-2.61C1085.43,69.48,1088.31,80.53,1088.17,94.88Zm-14.55-5.44c-1-4.79-1.48-9.3-3-13.39-.75-2-3.53-4.27-5.48-4.35s-5.1,1.92-5.92,3.79c-1.86,4.23-2.6,9-3.92,14Z" transform="translate(-210.58 107.59)"/><path class="cls-10" d="M988.55,95H956.71c.07,7.19.87,13.83,6.67,18.29,7.88,6.07,15.29,1.63,23-2.32,0,3.93-.95,7.18-3.9,8.82-11,6.09-30.73,6.17-39-8.5-3.58-6.36-5.47-13.42-3.42-20.94.67-2.44.86-5,1.56-7.44,2.63-9,8.6-14.61,17.88-16,10.83-1.63,20.73-.08,26,9.26C988.66,81.74,989.47,87.94,988.55,95Zm-14-5.46c-1.12-5-1.59-9.72-3.23-14-2.15-5.53-8.42-6-11-.69-2.16,4.35-2.95,9.38-4.5,14.64Z" transform="translate(-210.58 107.59)"/><path class="cls-10" d="M693.46,68.18H710.4C714.69,79.3,719,90.55,723.81,103l12.36-34.77h9.18l-34.55,83h-9.12l14.07-29C708.27,104.05,701,86.44,693.46,68.18Z" transform="translate(-210.58 107.59)"/><path class="cls-7" d="M1347.77,68.21h17c4.14,10.87,8.34,21.92,12.55,33l1.39.12q5.92-16.55,11.84-33.08h9.17c-11.55,27.63-23,55.11-34.68,83h-9.1c1.94-4,3.76-7.69,5.55-11.4,2.22-4.61,4.76-9.1,6.49-13.89a12.34,12.34,0,0,0,.21-8C1361.63,101.42,1354.75,85.11,1347.77,68.21Z" transform="translate(-210.58 107.59)"/><path class="cls-11" d="M814.34,37.3H830.6v84H814.34Z" transform="translate(-210.58 107.59)"/><path class="cls-11" d="M1031.48,116.16l.22,4.16c-6.3,3.42-12.94,4.19-19.35,1.82-6.24-2.31-7.65-8.49-7.73-14.29-.12-9.27.63-18.56,1-27.85.06-1.61-.16-3.24-.27-5.12l-7.18-.35V68.42h7V54.69l16-7.39V68.13h9.43v6h-9.31a60.27,60.27,0,0,0-.68,6.06c-.17,9.48-.72,19-.17,28.41C1020.85,116.86,1023.45,118.25,1031.48,116.16Z" transform="translate(-210.58 107.59)"/><path class="cls-7" d="M1650.57,74h-7.17V68.37L1651,68V54.69l16.11-7.47V68.16h8.87v5.51h-9.77c.75,14.51-1.68,28.78,1.51,43h9.54v3.57c-7.73,4.62-18.28,4.33-22.61-1.12a16.92,16.92,0,0,1-3.68-9.42c-.24-11.65.24-23.32.44-35Z" transform="translate(-210.58 107.59)"/><path class="cls-7" d="M1046.73-80.36h0l-7.83-5c9.16-3.75,6.7-11.79,7.08-18.9h29.47v13.8l11.15-1v8.17c-2.44.32-4.89.74-7.36.94a63.41,63.41,0,0,1-6.89.18c-3.16-.09-5.14-2.18-5.6-6.05a44.09,44.09,0,0,1,0-5.75c0-.75.12-1.51.19-2.4h-12.23c0,6.15-1.89,11.51-7.05,15.31Z" transform="translate(-210.58 107.59)"/><path class="cls-6" d="M875.27-101.37h26.9V-77.6h-26.9Zm17.67,8h-8.45v7.42h8.45Z" transform="translate(-210.58 107.59)"/><path class="cls-11" d="M844.72-77.66v-23.71h26.09v23.71Zm9.55-15.79V-86h7.78v-7.48Z" transform="translate(-210.58 107.59)"/><path class="cls-10" d="M1117.46,121.43h-15.94V68.3h15V79.53c4.6-7.39,8.69-14,18.11-12.85v16c-2.66-.22-5-.56-7.38-.57-5.58,0-9.55,3.34-9.68,8.77C1117.29,101,1117.46,111.13,1117.46,121.43Z" transform="translate(-210.58 107.59)"/><path class="cls-7" d="M905.93-38.84v8.08h-65v-8.08Z" transform="translate(-210.58 107.59)"/><path class="cls-8" d="M1321.27,68.19v8.67l.81,1c4.29-6.5,8.61-12.93,17.53-11V82.57c-2.83-.17-5.21-.4-7.59-.44-6-.1-9.83,3.66-9.87,9.83-.07,9.72,0,19.45,0,29.42h-15.9V68.19Z" transform="translate(-210.58 107.59)"/><path class="cls-8" d="M1260-24.91c5.94-12.85,8-26.44,9.51-40.66l12.84,1.17c-3.14,14.59-6.17,28.7-9.23,42.91Z" transform="translate(-210.58 107.59)"/><path class="cls-6" d="M1779.86,82.79c-2.06-.24-3.91-.61-5.76-.65-7.2-.13-11.31,3.84-11.24,11.21.07,8.5.45,17,.69,25.49,0,.8-.07,1.59-.12,2.57h-16.24V68.33H1762V77.9l.93.74c4-7,8.3-13.37,17.83-11.82C1780.43,72.12,1780.15,77.47,1779.86,82.79Z" transform="translate(-210.58 107.59)"/><path class="cls-5" d="M1370-39.58,1357.08-33c-2.82-5.13-5.4-10.31-8.43-15.21s-6.56-9.58-10.18-14.79l9.41-6.13Z" transform="translate(-210.58 107.59)"/><path class="cls-7" d="M1148.53,121.33v-53h16.18v53Z" transform="translate(-210.58 107.59)"/><path class="cls-5" d="M1317.15-73.61l-17.77-21.54c2.62-1.84,5.58-3.94,8-5.65L1328.31-82Z" transform="translate(-210.58 107.59)"/><path class="cls-7" d="M936-74.69,927-94.82l8.4-4.52c3.49,7.08,6.72,13.66,10.11,20.53Z" transform="translate(-210.58 107.59)"/><path class="cls-7" d="M1156.25,37.62c5.39,0,9.08,3.47,9.16,8.74a8.91,8.91,0,0,1-8.93,9.15,9.46,9.46,0,0,1-9.24-9.31C1147.26,41.72,1151.52,37.67,1156.25,37.62Z" transform="translate(-210.58 107.59)"/><path class="cls-2" d="M432.66,38.79l.17-.31.15.06-.16.43Z" transform="translate(-210.58 107.59)"/><path class="cls-2" d="M433,36.72l.31-.27.13.1-.25.39Z" transform="translate(-210.58 107.59)"/><path class="cls-13" d="M1181.18-83.94l-.51-.45Z" transform="translate(-210.58 107.59)"/><path class="cls-13" d="M723.51-82.08l.58-.47Z" transform="translate(-210.58 107.59)"/><path class="cls-13" d="M796.05-82.55l.51.47Z" transform="translate(-210.58 107.59)"/><path class="cls-2" d="M432.82,39l-.27.16-.1-.09.21-.25Z" transform="translate(-210.58 107.59)"/><path class="cls-13" d="M1650.57,74l.79.7Z" transform="translate(-210.58 107.59)"/><path class="cls-14" d="M396.25,121.82l.2.22Z" transform="translate(-210.58 107.59)"/><polygon class="cls-15" points="219.4 155.64 219.34 155.67 219.35 155.59 219.4 155.64"/><path class="cls-16" d="M1009.05-97l.05,1.21" transform="translate(-210.58 107.59)"/><path class="cls-16" d="M997-59.17l-.47-.45" transform="translate(-210.58 107.59)"/><path class="cls-16" d="M996.48-96.48,997-97" transform="translate(-210.58 107.59)"/></svg>