<svg id="Layer_1" data-name="Layer 1" xmlns="http://www.w3.org/2000/svg" viewBox="0 0 317.32 247.91"><defs><style>.cls-1{fill:#fefefe;}.cls-2{fill:#2385c5;}.cls-3{fill:#4898cf;}.cls-4{fill:#fefefd;}.cls-5{fill:#fdfbe8;}.cls-6{fill:#c1282e;}.cls-7{fill:#2384c5;}.cls-8{fill:#2484c4;}.cls-9{fill:#e8b4b6;}.cls-10{fill:#de9194;}.cls-11{fill:#edcbce;}.cls-12{fill:#fcfcfd;}.cls-13{fill:#f0cdce;}.cls-14{fill:#e19c9f;}</style></defs><path class="cls-1" d="M1023.76,558.46c-.19.16-.28.21-.27.24a1.33,1.33,0,0,0,.1.34c0-.14.08-.29-.08,0l0,0-.2.16.08.08A4,4,0,0,0,1023.76,558.46Z" transform="translate(-801.24 -416)"/><path class="cls-2" d="M801.24,507.44V416h73v91.44Z" transform="translate(-801.24 -416)"/><ellipse class="cls-3" cx="153.24" cy="0.12" rx="51.42" ry="0.17"/><ellipse class="cls-4" cx="94.92" cy="0.12" rx="31.06" ry="0.17"/><path class="cls-5" d="M874.2,416.24h43.92v91.2h59a6.69,6.69,0,0,1,.71,2.7,7.18,7.18,0,0,0,.06.82c.42,1.24.07,2.51.19,3.76-.4.39-.18.89-.24,1.34s-.17,1-.24,1.46a10.45,10.45,0,0,1-.27,2c-.69,1.9-.82,4-1.65,5.8-.29,2.24-1.23,4.34-1.44,6.6-.45.54,0,1.25-.3,1.79s-.09,1.24-.18,1.85.22,1.06.22,1.58a14.43,14.43,0,0,0,.94,3.94c.56,1.92,1.49,3.7,2.21,5.56a16.32,16.32,0,0,1,.89,1.9c.16.69.75,1.28.54,2.06H918.12v91.44c-1.73,0-3.44.33-5.18.26s-3.51,0-5.27,0H876.26a9.73,9.73,0,0,1-1.08,0,8.68,8.68,0,0,1-1-.23V550.64h-73v-43.2h73Z" transform="translate(-801.24 -416)"/><path class="cls-6" d="M978.6,550.64c.21-.78-.38-1.37-.54-2.06a16.32,16.32,0,0,0-.89-1.9c-.72-1.86-1.65-3.64-2.21-5.56a14.43,14.43,0,0,1-.94-3.94c0-.52-.31-1-.22-1.58s-.13-1.23.18-1.85-.15-1.25.3-1.79c.21-2.26,1.15-4.36,1.44-6.6.83-1.85,1-3.9,1.65-5.8a10.45,10.45,0,0,0,.27-2c.07-.49.17-1,.24-1.46s-.16-.95.24-1.34c-.12-1.25.23-2.52-.19-3.76a7.18,7.18,0,0,1-.06-.82,6.69,6.69,0,0,0-.71-2.7v-.6a10,10,0,0,0-.74-1.85,11.43,11.43,0,0,0-2.54-3.14,7.42,7.42,0,0,0-4.26-1.58,21.9,21.9,0,0,0-5.42.18c-.54.13-1.13.13-1.7.25s-1.15.3-1.74.44c-1.32.3-2.65.57-4,.76a4.91,4.91,0,0,1-2.07-.19,3.91,3.91,0,0,1-1.88-1c-.39-.4-.82-.77-1.18-1.19a6.23,6.23,0,0,0-3.74-1.69c-.51-.11-1-.07-1.58-.23s-1.13-.12-1.7-.24a7.11,7.11,0,0,1-3.1-1.49,8.56,8.56,0,0,1-2.51-4,28.91,28.91,0,0,1-1.12-3.49,10.7,10.7,0,0,1-.58-3.37c.06-.63,0-1.28,0-1.91a4.23,4.23,0,0,1,2.95-4,3.3,3.3,0,0,1,2-.15,11.35,11.35,0,0,0,4.05.65,7.92,7.92,0,0,0,2.83-.71A11.93,11.93,0,0,0,953,476a8.61,8.61,0,0,0,.68-.91c.23-.31.46-.61.68-.92.64-.9,1.33-1.76,1.89-2.7a23.18,23.18,0,0,1,5.22-6.56,5.79,5.79,0,0,1,1.46-1.13c.58-.25,1-.82,1.69-.83a10.81,10.81,0,0,1,4.46-1.09c1.55-.18,3.13.05,4.69-.25a6.77,6.77,0,0,0,3.06-1.3c1.37-1.08,1.53-2.72,1.73-4.3,0-.28-.17-.57-.21-.86a15.32,15.32,0,0,0-.28-2.17c-.13-.46,0-1-.25-1.32-.31-.48,0-1-.22-1.36a2.81,2.81,0,0,1-.22-1.47c0-1,0-1.92,0-2.88a9.44,9.44,0,0,1,.65-3.33,17.18,17.18,0,0,1,2.18-4.37c.3-.46.62-.9.92-1.35a2.13,2.13,0,0,1,.35,1.31,1.11,1.11,0,0,0,0,.6c.48,1.14.32,2.46,1,3.56a8.38,8.38,0,0,0,.7,2.35,9.17,9.17,0,0,0,1,2.36c.45.76.77,1.6,1.22,2.37a23,23,0,0,0,2.61,3.59,19,19,0,0,0,2.9,2.55l3.43,2.84c.51.42,1,.83,1.52,1.27a10.26,10.26,0,0,1,2.73,4.63c.6,1.82,1.22,3.64,2,5.41.66,1.53,1.42,3,2.16,4.5.63,1.27,1.5,2.41,2.17,3.66s1.53,2.41,2.32,3.6c.57.86,1.28,1.62,1.84,2.48.69,1.07,1.59,2,2.32,3a22.14,22.14,0,0,0,1.7,1.93q2.41,2.59,5,5c1.36,1.29,2.75,2.55,4.21,3.7,2,1.59,3.33,3.7,4.84,5.68.34.45.61,1,1,1.39,1.08,1.18,2,2.49,3.11,3.65,1,1,1.82,2.11,2.72,3.19a31.83,31.83,0,0,1,3.9,5.33,43.43,43.43,0,0,1,1.92,4,15.61,15.61,0,0,0,1.68,2.9c1,1.37,1.93,2.74,3,4a58.65,58.65,0,0,1,4.6,6.24c.71,1.14,1.36,2.32,2.07,3.46,1.1,1.76,2.2,3.51,3.42,5.2a30.77,30.77,0,0,0,3.25,3.68c3,3.06,6.12,6.1,9.16,9.17,1.3,1.32,2.58,2.67,3.81,4.06s2.4,2.74,3.47,4.2c1.26,1.73,2.44,3.52,3.57,5.35a27.2,27.2,0,0,1,1.83,3.45,28,28,0,0,1,2,5.78,13.55,13.55,0,0,0,.65,2.6c.18.48-.1,1.09.27,1.57a26.16,26.16,0,0,0,.52,3.27c.09,1,.33,2.1.49,3.16a7.66,7.66,0,0,0,.23,1.69c.2.55.06,1.1.23,1.59.23.69,0,1.43.25,2.05s0,1.34.22,1.95c.25.81.06,1.65.26,2.42a19.38,19.38,0,0,1,.21,3,9.13,9.13,0,0,1,.25,1.58,2.13,2.13,0,0,0,.22,1.58.17.17,0,0,1,0,.12c-.18,1.07.31,2.08.25,3.14,0,.57.28,1.1.25,1.7a7.9,7.9,0,0,0,.22,1.58,6,6,0,0,0,.28,1.68,3.64,3.64,0,0,1,.21,1.13c1,0,1.9.06,2.81,0a22.78,22.78,0,0,0,2.44-.46,26.83,26.83,0,0,0,4.87-1.86,46.37,46.37,0,0,0,5.41-3.46,47.25,47.25,0,0,0,5-4.51,44.7,44.7,0,0,0,5.64-7.15,32.76,32.76,0,0,0,2.15-3.66,9.82,9.82,0,0,0,1-3.31,7.6,7.6,0,0,1,.59-2.5,4.13,4.13,0,0,1,1.24-1.66c.7.22.7.92.73,1.39a32.7,32.7,0,0,1,0,4.2,10.24,10.24,0,0,1-.48,2.44c-.35,1.09-.65,2.2-1,3.28a44.79,44.79,0,0,1-1.88,4.26,45.61,45.61,0,0,1-2.45,4.15c-.39.62-.72,1.29-1.08,2l-1.89,3.41c-.89,1.6-1.87,3.15-2.77,4.74s-1.93,3-2.81,4.59a35.17,35.17,0,0,1-2.14,3,46.1,46.1,0,0,1-5.77,6.48c-.81.79-1.73,1.43-2.58,2.15s-2,1.46-2.95,2.18c-1.68,1.22-3.43,2.33-5.26,3.52.38.55.71,1.11,1.11,1.62a13.91,13.91,0,0,1,1.75,3.72,6.13,6.13,0,0,1,.26,1.93,8.61,8.61,0,0,1,0,2,14.29,14.29,0,0,1-1.66,5.43,13.36,13.36,0,0,1-1.63,2.33c-.32.32-.52.77-.87,1.07a36.48,36.48,0,0,1-3.54,2.72,31.56,31.56,0,0,1-4.9,2.1,6.57,6.57,0,0,1-1.69.26c-.48.08-1,.17-1.46.24s-1-.17-1.46.24c-.68-.11-1.4.21-2.08-.19-.19-.11-.56.08-.94.15-.07,0-.25-.21-.4-.19a13.91,13.91,0,0,1-3-.27,17.6,17.6,0,0,1-2.66-.52c-.79-.19-1.57-.47-2.36-.65a26.45,26.45,0,0,1-3.5-1.13c-3.51-1.31-6.75-3.19-10.13-4.81a41.72,41.72,0,0,0-5.79-2.23c-.85-.27-1.72-.48-2.58-.73s-1.66-.37-2.47-.68a9.45,9.45,0,0,0-1.93-.27c-.41-.06-.81-.18-1.22-.24s-.87.13-1.23-.23c0,0-.15,0-.23,0-1.7.05-3.36-.41-5.06-.25a6.93,6.93,0,0,1-1.44,0,38.87,38.87,0,0,0-4.94.29,6.81,6.81,0,0,0-1.81.24c-.59.2-1.18,0-1.71.22-1.45.51-3,.45-4.43,1.18a11.38,11.38,0,0,0-2.93.75,25.24,25.24,0,0,0-3.42,1.29c-1.7.73-3.41,1.45-5,2.3-1.09.57-2.16,1.18-3.22,1.82s-2,1.14-3,1.75a18.92,18.92,0,0,0-3.49,3.13,9.39,9.39,0,0,0-.82,1.34c-.2.29-.45.52-.64.81h-1l-.77-1.07c.47-2.06,1.94-3.29,3.33-4.47a32.1,32.1,0,0,1,4.59-3.1,53.44,53.44,0,0,1,5-2.71,43.05,43.05,0,0,1,4.51-1.84c.74-.24,1.45-.56,2.2-.78,1.32-.39,2.6-.89,4-1.15a6.07,6.07,0,0,0,1.4-.4c.42-.2.87,0,1.34-.25a8.07,8.07,0,0,1,1.67-.28c.75-.17,1.56-.08,2.29-.29s1.65-.05,2.42-.24a23.22,23.22,0,0,1,4-.22c.57,0,1.13-.18,1.7-.22a13.52,13.52,0,0,1,1.8,0c.73,0,1.45.18,2.18.22a15.35,15.35,0,0,1,2.15,0,25.85,25.85,0,0,1,2.68.48,9.18,9.18,0,0,1,2.59.69,17.24,17.24,0,0,1,3.8,1c1.25.35,2.48.75,3.7,1.2,1.56.57,3.09,1.23,4.65,1.81,1.21.46,2.44.86,3.66,1.3.8.29,1.58.63,2.39.91a52.28,52.28,0,0,0,5.4,1.74,14.61,14.61,0,0,1,1.83.51c.57.19,1.23,0,1.73.43,0,0,.16,0,.24,0,1,.08,2,.19,3,.23s2-.06,3,0a14.54,14.54,0,0,0,3.37-.31,10.39,10.39,0,0,0,3.31-.95,12.1,12.1,0,0,0,3.35-2.36,5.57,5.57,0,0,1,.59-.6,7.48,7.48,0,0,0,2.22-3.64,6.58,6.58,0,0,0,.18-4.05,10.7,10.7,0,0,0-1.68-4.22c-.17-.25-.4-.47-.65-.78-.24.11-.47.24-.71.33a11.48,11.48,0,0,1-2.7.73c-.37,0-.73.17-1.1.22a3.65,3.65,0,0,0-1,.21,3.53,3.53,0,0,1-1.42,0,18.92,18.92,0,0,1-2.72-.13,17.18,17.18,0,0,0-2.58-.1,12.72,12.72,0,0,0-2.76,0,44.66,44.66,0,0,1-6.74.2,60.24,60.24,0,0,1-6.72,0,50.79,50.79,0,0,0-8.54-.14c-3.17.24-6.34.07-9.5.17-.54,0-1,.41-1.58.25v-.24c.05-.5.5-.17.75-.35a23.39,23.39,0,0,1,2.13-1.21,4.87,4.87,0,0,1,2.39-.62,4.68,4.68,0,0,0,2.43-.21.8.8,0,0,1,.59,0c1.07.44,2.18.16,3.26.22a13.51,13.51,0,0,0,1.8,0,4.33,4.33,0,0,0,1.85-.17c.55-.27,1.25.18,1.8-.3,0,0,.08,0,.11,0,1.11.18,2.17-.38,3.26-.22.54.07,1-.22,1.46-.27a5.09,5.09,0,0,0,1.37-.17,7.37,7.37,0,0,1,1.8-.27,20.27,20.27,0,0,0,2.22-.44c.81-.17,1.61-.41,2.42-.53.61-.09,1.13-.39,1.72-.51s1.22-.34,1.84-.46,1.12-.39,1.71-.52a1.89,1.89,0,0,0,1.33-1.92v-.9a4.33,4.33,0,0,1,1.19.23,21.51,21.51,0,0,0,3.1.91,12.5,12.5,0,0,1,3.86,2,48.36,48.36,0,0,1,3.52,3.34c.1.09.12.27.21.49.39-.1.89-.08,1.16-.32,1-.85,2.32-1.26,2.83-2.7a13.84,13.84,0,0,0-.88-1.12,21,21,0,0,0-4.27-3.58,11.54,11.54,0,0,0-3.36-1.43,16,16,0,0,0-4-1,3.4,3.4,0,0,1-.89-.33c-.62-.93-.22-2,0-2.93a13.37,13.37,0,0,0,.66-3.92,7.79,7.79,0,0,1,0-1.08c0-.33.21-.65.22-1,0-1.45-.4-2.88-.23-4.34a7.06,7.06,0,0,1-.24-2.78,7.68,7.68,0,0,0-.22-2.07c-.18-.61,0-1.27-.22-1.94a13.53,13.53,0,0,1-.28-2.65c-.06-.57-.16-1.13-.24-1.7a6.41,6.41,0,0,0-.19-1.6,10.72,10.72,0,0,1-.27-1.68c-.22-1.05-.24-2.14-.52-3.15a10.94,10.94,0,0,0-2-4.36,15.09,15.09,0,0,0-3.13-2.59c-.77-.53-1.66-.85-2.42-1.42a4.82,4.82,0,0,0-1.71-.77,7.36,7.36,0,0,1-2.31-1.11,11.49,11.49,0,0,0-2.56-1,17.39,17.39,0,0,1-4-1.9,4.92,4.92,0,0,1-1.87-2.35c-.23-.58-.42-1.18-.65-1.76a5.94,5.94,0,0,0-.71-1.15c-.79-1.07-1.45-2.28-2.86-2.77l0-.87h-.91a1.68,1.68,0,0,1,0-.41c0-.22.25-.47.18-.63-.51-1.23-.08-2.5-.22-3.75a8.44,8.44,0,0,1,1.08-1.95c.27-.29.56-.56.84-.84v-.5l1.12-.82c.12-.67.19-1.24.33-1.79.1-.39.37-.74.45-1.13a6.73,6.73,0,0,0,0-1.19,4.7,4.7,0,0,0-.42-2.47,1.14,1.14,0,0,1,0-1,7.77,7.77,0,0,0,.84-2.41c.31-1,.25-2.13.55-3.14.39-1.34-.16-2.5-.53-3.68-.2-.61-.18-1.25-.41-1.87a3.14,3.14,0,0,0-.63-1h-.76a3.05,3.05,0,0,0-.57.65,28.2,28.2,0,0,0-1.69,3.86c-.08.24-.15.49-.24.74s-.22.47-.37.78c-1.34-1.79-3.25-2.75-5.22-3.8.17-.21.33-.41.48-.62l.51-.76-1.07.35c0-.12-.12-.26-.08-.33a4,4,0,0,0,.47-1.37l.51-1.42h-.7l-.29,1.42-.24.74c-.27.91-.52,1.85-1.67,2a15.87,15.87,0,0,0-2,.75,1.08,1.08,0,0,1-.64,0c-.73-.27-1.42-.62-2.16-.86a4.34,4.34,0,0,0-1.69-.26,17.8,17.8,0,0,1-1.79,0,3.34,3.34,0,0,0-2.59.71c-.51.78-.59,2-1.11,3.23a13.68,13.68,0,0,1-1.52.61,12.35,12.35,0,0,0-3.58,2,.57.57,0,0,0-.25.61,2.73,2.73,0,0,0-.23.25l0,0-.2.16.08.08a1.59,1.59,0,0,0,.15-.21,2.73,2.73,0,0,1,.23-.25c.15,0,.35,0,.43-.09,1-1.1,2.49-1.51,3.74-2.25.2-.13.52,0,.92-.07l-.33.9a9.34,9.34,0,0,0-2.07,1.28,19.72,19.72,0,0,0-2.4,2.25,17.75,17.75,0,0,0-3.47,5.12,3.16,3.16,0,0,0-.42,1.5l-.24.24c-.51.86-.51.86-.33,1.7a2.81,2.81,0,0,0,.57-1.7V566a13.7,13.7,0,0,0,.81-1.14,17,17,0,0,1,3.42-4.9c.47-.45.77-1.11,1.29-1.47a17.11,17.11,0,0,0,1.57-1.37h.59c0,.12,0,.28,0,.35-.44.55-.9,1.07-1.35,1.61a9.22,9.22,0,0,0-1,1.26c-.64,1.13-1.21,2.3-1.79,3.46a.83.83,0,0,0,0,.78c.48-.9.89-1.85,1.44-2.71a7.41,7.41,0,0,1,1.8-2.47,2.6,2.6,0,0,1-.16,2.2c-.49,1.67-1.16,3.29-1.6,5a10.08,10.08,0,0,1-.56,1.08,1.62,1.62,0,0,0-.08.73,16,16,0,0,0,1.92-4c.57-1.34.75-2.79,1.26-4.21a5.29,5.29,0,0,0,1.35,2.16,5.59,5.59,0,0,1,.68,1c0,.57,0,1.21,0,1.85a2,2,0,0,0,.53,1.45,5.9,5.9,0,0,1,.89,1.45c.26.43.69.84.55,1.45,0,.07.13.17.15.19a3.46,3.46,0,0,0-.18,1.06,3.42,3.42,0,0,1-1.11,2.67,11.47,11.47,0,0,1-.85.86c.2,1.16-.52,2.11-.63,3.44a.62.62,0,0,1,0,.79,2.38,2.38,0,0,0-.58,2,13.78,13.78,0,0,0-1.52,2.45c-.11.3-.65.45-1.07.72l-.3.83h-1.17v.89l1,.64c-.13.65-1,1.23-.27,2a7.26,7.26,0,0,0-.46,1.6c-.11,2.13-.37,4.24-.27,6.38,0,.6.63,1,.5,1.6.68.45.61,1.27.9,1.91.53,1.18.39,1.56-.38,2.84a13,13,0,0,0-.53,1.21c-.13.28-.29.53-.48.88.1,1.34-.43,2.77-.24,4.23a4.62,4.62,0,0,0-.23,2.3c0,.62-.35,1.17-.27,1.82a2.21,2.21,0,0,1-.22,1.7s0,.08,0,.12c-.08,1.16-.15,2.33-.25,3.5,0,.53-.15,1-.23,1.58s.2,1-.23,1.46c0,0,0,.16,0,.24,0,1.77-.31,3.52-.28,5.3a10.94,10.94,0,0,1-.49,3.74,8,8,0,0,1-2,3.51c-.11.09-.13.26-.21.42-.58.46-1.3.27-1.78.3a3.67,3.67,0,0,0-2.18,2.07,3.09,3.09,0,0,0-.42,2.73c.46.39.84,1.16,1.59,1.33,1.06.24,2.07.84,3.15.57.36-.17.65-.33,1-.44s.49,0,.66-.15a5.48,5.48,0,0,0,1.32-1.11,4.75,4.75,0,0,0,.69-.91,2.91,2.91,0,0,1,1.57-1.41,5.7,5.7,0,0,0,1.54-1.2c.47-.49.38-1.19.61-1.78a5.71,5.71,0,0,0,.24-.86c.06-.25-.15-.56-.2-.85a1,1,0,0,1,0-.6,4.87,4.87,0,0,0,.21-2.42,8.21,8.21,0,0,1,.25-1.71c.13-.51-.2-1.1.24-1.58.06-.07,0-.23,0-.35a9.59,9.59,0,0,1,.48-3.28,1.92,1.92,0,0,0,0-.24c.08-1,.1-2,.27-3,.08-.49.18-1,.23-1.46s.35-.92.39-1.39c.08-.87.45-1.68.52-2.54a8.59,8.59,0,0,1,.62-2.15,47,47,0,0,1,2-4.37,3.74,3.74,0,0,1-.09,2c-.23.45.11,1.09-.29,1.56a12.92,12.92,0,0,1-.53,3c-.17.83,0,1.65-.22,2.43a9.56,9.56,0,0,0-.2,2.66,7.16,7.16,0,0,0,2.25,5.06,14,14,0,0,0,1.29,1h2.9l1.2-.45a2.54,2.54,0,0,0,1.56-1.4,3,3,0,0,0,0-1.94,4.33,4.33,0,0,0-1.25-2.24,2,2,0,0,1-.51-.75c-.19-.41-.44-.78-.66-1.16a4.3,4.3,0,0,1-.61-1.92,16.16,16.16,0,0,1,.27-2.78c0-.44.42-.76.49-1.24a12.93,12.93,0,0,1,.56-1.8c.08.21.08.33.14.4a10.41,10.41,0,0,1,1.51,3,25.83,25.83,0,0,0,1.66,2.68,3.75,3.75,0,0,1,.77,1.48c0,.18.14.36.13.54a6.82,6.82,0,0,0,.57,2.53,28.22,28.22,0,0,0,1.69,3.61,12,12,0,0,0,2.27,3c.3.3.61.6,1.09,1.12-1.28,0-2.23-.06-3.17,0a9.31,9.31,0,0,1-3.86-.84,11.49,11.49,0,0,0-1.67-.6,3.27,3.27,0,0,0-1.74.39,11.58,11.58,0,0,0-2.82,1.8c-.17.85.37,1.4.62,1.9,1.13.53,2.14,1,3.13,1.48a5.28,5.28,0,0,0,1.38.44,31.56,31.56,0,0,0,4.11.23c1.09.11,2.18.35,3.28.47.22,0,.42.24.67.39a15.67,15.67,0,0,1-1.95.3c-.62,0-1.18.42-1.82.26-1.51.5-3.06.17-4.58.22-.64,0-1.28-.21-1.94-.24-2.71-.1-3.56.48-5.75,1.78a23.81,23.81,0,0,0-2.42,1.69,2.22,2.22,0,0,0-1,2.1,8.27,8.27,0,0,1,0,1.12h.84l.47,1,1.57.33s0,.09-.08.09c-1.52,0-3,.31-4.56.3-9.08,0-18.16,0-27.24,0a7.39,7.39,0,0,0-2.36.1c-.75.27-1.49,0-2.26.32a11.57,11.57,0,0,1-2.95.35L987,642.08a1.93,1.93,0,0,0,0-.59,8.19,8.19,0,0,1-.45-1.12,7,7,0,0,1,0-1.3V638a3.33,3.33,0,0,0,.45-1,1.27,1.27,0,0,1,.38-.69,4.82,4.82,0,0,1,1.92-1.4,3.77,3.77,0,0,0,1.81-1.48c.08-.21.17-.41.24-.62a2.28,2.28,0,0,1,1.25-1.54,6.53,6.53,0,0,1,3.18-.71c.33,0,.66.22,1,.22a8.16,8.16,0,0,1,1.78.37,13.61,13.61,0,0,1,1.38.41,7.81,7.81,0,0,0,1.27.41,3.75,3.75,0,0,1,1.47.24c.15.09.45,0,.66-.08.42-.14.83-.31,1-.38l.68-.92a15.54,15.54,0,0,0-.22-2.76c-.46-1.6-.89-3.22-1.4-4.81a11.72,11.72,0,0,1-.81-4.36c.08-1.44,0-2.88,0-4.32,0-.24-.08-.53,0-.71.42-.73.34-1.6.7-2.35s.66-1.58,1.08-2.31a15.86,15.86,0,0,0,1.31-3.9c.13-.46-.19-.89-.22-1.34a7.59,7.59,0,0,0-1.34-3.64c-.84-1.31-1.85-2.51-2.78-3.77-.72-1-1.45-2-2.12-3a15.23,15.23,0,0,0-2.54-3.36h-1.19a8.62,8.62,0,0,0-2.3,3.86,21.57,21.57,0,0,1-1.17,3.11,5.42,5.42,0,0,0-.68,1.52c-.14.77-.69,1.46-.53,2.3-.46.15-.12.54-.24.79a6.24,6.24,0,0,0-.48,2.08c-.09.76-.17,1.53-.24,2.29a6.27,6.27,0,0,1-.12,1.75c-.23.59.14,1.27-.36,1.77-.54,2.85-1.66,4.26-4.07,6.08a15.76,15.76,0,0,0-2.24,1.8,17.32,17.32,0,0,0-1.87,2.44,28.19,28.19,0,0,1-2.41,3.43,23.73,23.73,0,0,1-3,3,15.29,15.29,0,0,0-1.33,1.34,10.59,10.59,0,0,0-1.89,3.55c-.69,1.79-1.18,3.65-1.9,5.44a12.16,12.16,0,0,1-2.63,4.17,14,14,0,0,1-1.49,1.15c-.41-.13-.72.22-1.1.25s-.65.18-1,.22-.72,0-1.08,0-.76.29-1.09.21a23.64,23.64,0,0,0-5.18-.21c-1.75-.05-3.51,0-5.27,0-1.17,0-2.31.3-3.5.24s-2.39,0-3.59,0-2.15-.35-3.26-.26-2.23,0-3.34,0l-.65-.48a3.72,3.72,0,0,0-.09-.68c-1.22-3.62-1.11-3.2-1.12-5.42a4.51,4.51,0,0,1,.42-1.63,8.57,8.57,0,0,1,2.2-2.93,12.42,12.42,0,0,1,4.75-2.75,7.57,7.57,0,0,1,3-.75c.34-.38.91-.06,1.19-.27.47-.35.92-.12,1.37-.21a10.09,10.09,0,0,1,1.22-.23c.93-.07,1.85-.1,2.78-.2a26.35,26.35,0,0,0,4.15-.75,17.16,17.16,0,0,0,4.84-1.94,7.56,7.56,0,0,0,3.58-4.81,11.21,11.21,0,0,1,1-2.71,29.15,29.15,0,0,0,1.39-3.27,23.19,23.19,0,0,0,1.47-6.95c0-.12-.05-.3,0-.35.38-.32.17-.74.23-1.11s.2-.81.23-1.22a11.89,11.89,0,0,1,1.13-3.86,23.65,23.65,0,0,0,2.22-6.51c.32-1.51.61-3,1-4.53a51.84,51.84,0,0,1,1.59-5.47c.57-1.68,1.29-3.31,1.77-5,.36-1.29.74-2.58,1-3.9.18-.87.55-1.69.79-2.55s.52-1.79.75-2.69c.32-1.23.36-2.48.56-3.72a14.48,14.48,0,0,0,0-2.87,8.41,8.41,0,0,0-.21-2.91,5.21,5.21,0,0,1,0-1.19c0-.42-.15-.82-.23-1.23-.12-.63-.19-1.28-.31-1.92s-.3-1.15-.42-1.73-.37-1.14-.52-1.72S979.16,551,978.6,550.64Zm62.16-2.64h-.4l-.44,1.11.84-.44V548l.24-.24c.6-.19.73-.82.83-1.25a4.51,4.51,0,0,0,.27-2.38c-.29.71-.52,1.16-.66,1.64-.2.68-.74,1.23-.68,2Zm-25.28,20.16h-.08v.24h.08Z" transform="translate(-801.24 -416)"/><path class="cls-2" d="M801.24,550.64h73v91.44h-73Z" transform="translate(-801.24 -416)"/><path class="cls-7" d="M990.84,455.6a19,19,0,0,1-2.9-2.55,23,23,0,0,1-2.61-3.59c-.45-.77-.77-1.61-1.22-2.37a9.17,9.17,0,0,1-1-2.36,8.38,8.38,0,0,1-.7-2.35c-.63-1.1-.47-2.42-1-3.56a1.11,1.11,0,0,1,0-.6,2.13,2.13,0,0,0-.35-1.31c-.3.45-.62.89-.92,1.35a17.18,17.18,0,0,0-2.18,4.37,9.44,9.44,0,0,0-.65,3.33c.05,1,0,1.92,0,2.88a2.81,2.81,0,0,0,.22,1.47c.21.38-.09.88.22,1.36.21.32.12.86.25,1.32a15.32,15.32,0,0,1,.28,2.17c0,.29.25.58.21.86-.2,1.58-.36,3.22-1.73,4.3a6.77,6.77,0,0,1-3.06,1.3c-1.56.3-3.14.07-4.69.25a10.81,10.81,0,0,0-4.46,1.09c-.69,0-1.11.58-1.69.83a5.79,5.79,0,0,0-1.46,1.13,23.18,23.18,0,0,0-5.22,6.56c-.56.94-1.25,1.8-1.89,2.7-.22.31-.45.61-.68.92a8.61,8.61,0,0,1-.68.91,11.93,11.93,0,0,1-3.83,2.89,7.92,7.92,0,0,1-2.83.71,11.35,11.35,0,0,1-4.05-.65,3.3,3.3,0,0,0-2,.15,4.23,4.23,0,0,0-2.95,4c0,.63,0,1.28,0,1.91a10.7,10.7,0,0,0,.58,3.37,28.91,28.91,0,0,0,1.12,3.49,8.56,8.56,0,0,0,2.51,4,7.11,7.11,0,0,0,3.1,1.49c.57.12,1.16.09,1.7.24s1.07.12,1.58.23a6.23,6.23,0,0,1,3.74,1.69c.36.42.79.79,1.18,1.19a3.91,3.91,0,0,0,1.88,1,4.91,4.91,0,0,0,2.07.19c1.34-.19,2.67-.46,4-.76.59-.14,1.16-.32,1.74-.44s1.16-.12,1.7-.25a21.9,21.9,0,0,1,5.42-.18,7.42,7.42,0,0,1,4.26,1.58,11.43,11.43,0,0,1,2.54,3.14,10,10,0,0,1,.74,1.85v.6h-59v-91.2h72.72Z" transform="translate(-801.24 -416)"/><path class="cls-7" d="M978.6,550.64c.56.32.55,1,.67,1.44s.4,1.14.52,1.72.32,1.16.42,1.73.19,1.29.31,1.92c.08.41.19.81.23,1.23a5.21,5.21,0,0,0,0,1.19,8.41,8.41,0,0,1,.21,2.91,14.48,14.48,0,0,1,0,2.87c-.2,1.24-.24,2.49-.56,3.72-.23.9-.5,1.79-.75,2.69s-.61,1.68-.79,2.55c-.28,1.32-.66,2.61-1,3.9-.48,1.71-1.2,3.34-1.77,5a51.84,51.84,0,0,0-1.59,5.47c-.34,1.51-.63,3-1,4.53a23.65,23.65,0,0,1-2.22,6.51,11.89,11.89,0,0,0-1.13,3.86c0,.41-.16.81-.23,1.22s.15.79-.23,1.11c-.06,0,0,.23,0,.35a23.19,23.19,0,0,1-1.47,6.95,29.15,29.15,0,0,1-1.39,3.27,11.21,11.21,0,0,0-1,2.71,7.56,7.56,0,0,1-3.58,4.81,17.16,17.16,0,0,1-4.84,1.94,26.35,26.35,0,0,1-4.15.75c-.93.1-1.85.13-2.78.2a10.09,10.09,0,0,0-1.22.23c-.45.09-.9-.14-1.37.21-.28.21-.85-.11-1.19.27a7.57,7.57,0,0,0-3,.75,12.42,12.42,0,0,0-4.75,2.75,8.57,8.57,0,0,0-2.2,2.93,4.51,4.51,0,0,0-.42,1.63c0,2.22-.1,1.8,1.12,5.42a3.72,3.72,0,0,1,.09.68H918.12V550.64Z" transform="translate(-801.24 -416)"/><path class="cls-8" d="M991.08,633.44a3.77,3.77,0,0,1-1.81,1.48,4.82,4.82,0,0,0-1.92,1.4,1.27,1.27,0,0,0-.38.69,3.33,3.33,0,0,1-.45,1v1.08a7,7,0,0,0,0,1.3,8.19,8.19,0,0,0,.45,1.12,1.93,1.93,0,0,1,0,.59H966.6a14,14,0,0,0,1.49-1.15,12.16,12.16,0,0,0,2.63-4.17c.72-1.79,1.21-3.65,1.9-5.44a10.59,10.59,0,0,1,1.89-3.55,15.29,15.29,0,0,1,1.33-1.34,23.73,23.73,0,0,0,3-3,28.19,28.19,0,0,0,2.41-3.43,17.32,17.32,0,0,1,1.87-2.44,15.76,15.76,0,0,1,2.24-1.8c2.41-1.82,3.53-3.23,4.07-6.08.5-.5.13-1.18.36-1.77a6.27,6.27,0,0,0,.12-1.75c.07-.76.15-1.53.24-2.29a6.24,6.24,0,0,1,.48-2.08c.12-.25-.22-.64.24-.79v31.13c0,.36,0,.72,0,1.08C990.86,633.32,991,633.38,991.08,633.44Z" transform="translate(-801.24 -416)"/><path class="cls-9" d="M1039.08,547.76l.29-1.42h.7l-.51,1.42Z" transform="translate(-801.24 -416)"/><ellipse class="cls-10" cx="230.88" cy="226.2" rx="1.02" ry="0.17"/><path class="cls-11" d="M1031.4,642.08v.24h-.68l0-.17Z" transform="translate(-801.24 -416)"/><path class="cls-6" d="M1024.24,556.54l-.17.58a1.33,1.33,0,0,1-.1-.34S1024.05,556.7,1024.24,556.54Z" transform="translate(-801.24 -416)"/><path class="cls-6" d="M1023.76,558.46l-.17.58a1.33,1.33,0,0,1-.1-.34S1023.57,558.62,1023.76,558.46Z" transform="translate(-801.24 -416)"/><path class="cls-6" d="M1023.51,559.06l-.17.2-.08-.08.2-.16Z" transform="translate(-801.24 -416)"/><path class="cls-12" d="M991.08,633.44c-.08-.06-.22-.12-.23-.19,0-.36,0-.72,0-1.08V601c-.16-.84.39-1.53.53-2.3a5.42,5.42,0,0,1,.68-1.52,21.57,21.57,0,0,0,1.17-3.11,8.62,8.62,0,0,1,2.3-3.86h1.19a15.23,15.23,0,0,1,2.54,3.36c.67,1,1.4,2,2.12,3,.93,1.26,1.94,2.46,2.78,3.77a7.59,7.59,0,0,1,1.34,3.64c0,.45.35.88.22,1.34a15.86,15.86,0,0,1-1.31,3.9c-.42.73-.72,1.54-1.08,2.31s-.28,1.62-.7,2.35c-.1.18,0,.47,0,.71,0,1.44.06,2.88,0,4.32a11.72,11.72,0,0,0,.81,4.36c.51,1.59.94,3.21,1.4,4.81a15.54,15.54,0,0,1,.22,2.76l-.68.92c-.21.07-.62.24-1,.38-.21.07-.51.17-.66.08a3.75,3.75,0,0,0-1.47-.24,7.81,7.81,0,0,1-1.27-.41,13.61,13.61,0,0,0-1.38-.41,8.16,8.16,0,0,0-1.78-.37c-.32,0-.65-.2-1-.22a6.53,6.53,0,0,0-3.18.71,2.28,2.28,0,0,0-1.25,1.54C991.25,633,991.16,633.23,991.08,633.44Z" transform="translate(-801.24 -416)"/><path class="cls-13" d="M1040.76,547.76c-.06-.76.48-1.31.68-2,.14-.48.37-.93.66-1.64a4.51,4.51,0,0,1-.27,2.38c-.1.43-.23,1.06-.83,1.25Z" transform="translate(-801.24 -416)"/><path class="cls-14" d="M1016.28,566.24a2.81,2.81,0,0,1-.57,1.7c-.18-.84-.18-.84.33-1.7Z" transform="translate(-801.24 -416)"/><path class="cls-1" d="M1040.76,548v.67l-.84.44.44-1.11Z" transform="translate(-801.24 -416)"/><path class="cls-1" d="M1040.76,547.76h.24l-.24.24Z" transform="translate(-801.24 -416)"/><path class="cls-1" d="M1019.88,557.36l-.24.24Z" transform="translate(-801.24 -416)"/><path class="cls-1" d="M1019.67,557.62l-.17.2-.08-.08.2-.16Z" transform="translate(-801.24 -416)"/><path class="cls-1" d="M1016.28,566.24H1016l.24-.24Z" transform="translate(-801.24 -416)"/><ellipse class="cls-14" cx="214.2" cy="152.28" rx="0.06" ry="0.17"/></svg>