<svg id="Layer_1" data-name="Layer 1" xmlns="http://www.w3.org/2000/svg" viewBox="0 0 800 461.4"><defs><style>.cls-1{fill:#c22a30;}.cls-2{fill:#c22c31;}.cls-3{fill:#c22c32;}.cls-4{fill:#c22b31;}.cls-5{fill:#c22b30;}.cls-6{fill:#c32e33;}.cls-7{fill:#c32d33;}.cls-8{fill:#f6e4e4;}.cls-9{fill:#fdfbe8;}.cls-10{fill:#c1282e;}.cls-11{fill:#2385c5;}.cls-12{fill:#2384c5;}.cls-13{fill:#2484c4;}.cls-14{fill:#e2eef7;}.cls-15{fill:#fefefe;}.cls-16{fill:#fcf7f7;}</style></defs><path class="cls-1" d="M-308-42.88c0,3.71-.13,7.42-.05,11.13s.33,7.17.51,10.91H-320a305.55,305.55,0,0,0,.1-50.26h2.51c6.74,0,13.47,0,20.2,0,5.75,0,10.9,4.07,11.82,9.1,1.22,6.76-2,13.06-7.76,15.28-1,.38-2,.79-3.55,1.41l15.52,24.53h-13.36L-307-42.89l-.84-1.42Zm0-4.53c3.32.94,7.46-.26,9.37-2.66,2.43-3.06,3-10.56.83-13.88-2.4-3.72-6.33-2.89-9.92-3.35A9,9,0,0,0-308-66C-308-59.84-308-53.72-308-47.41Z" transform="translate(320 462.64)"/><path class="cls-2" d="M302-68.81c-.61,2.52-1.2,4.92-1.89,7.8-1.94-1.53-3.69-3.06-5.59-4.38C289.12-69.16,279.07-68,275-62c-6.63,9.65-7,19.9-1.76,30.22,3.21,6.3,11.67,9.43,18.53,7.08,3.28-1.13,6.35-2.87,9.46-4.3.24,5.18-1.28,7.29-6.33,8.35-7.95,1.69-15.73,1.87-23.47-1.46-6.4-2.76-10.67-7.3-12.58-13.75-2.75-9.23-1.79-18.28,3.86-26.23a22.57,22.57,0,0,1,14.42-9.22c7.89-1.51,15.69-1.4,23.26,1.67A15,15,0,0,1,302-68.81Z" transform="translate(320 462.64)"/><path class="cls-3" d="M-95-20.7c-1.73,0-3.62,0-5.51,0a2.77,2.77,0,0,1-.75-.2c-6.6-16.72-13.19-33.39-19.87-50.29h12.9c4.27,11.87,8.59,23.9,12.92,35.93l.76.14L-80.91-71l6.26-.34Z" transform="translate(320 462.64)"/><path class="cls-4" d="M85.74-55.79H96.08c-.08,1.26-.16,2.38-.29,4.26,1.07-1,1.7-1.49,2.27-2.06A13.3,13.3,0,0,1,114.35-55c2.94,2,4,5.14,4.12,8.29.27,8.56.09,17.14.09,25.87H107.91c-.92-9.42,2.64-19.07-1.22-28C100.35-52,96.62-50,96.32-43.41c-.29,6.2,0,12.41,0,18.62v3.93H85.74Z" transform="translate(320 462.64)"/><path class="cls-5" d="M360-20.83H349.19v-35h10.28c.08,1.2.16,2.39.28,4.06,1.38-1.23,2.41-2.33,3.61-3.19,3.92-2.82,8.23-2.65,12.51-1.16,4,1.4,5.86,4.68,6,8.7.21,7.26.09,14.53.16,21.8,0,1.51.27,3,.43,4.72H371c.25-2.72.62-5.42.73-8.13a120.07,120.07,0,0,0,.2-14.06c-.42-5.29-3.11-8-7.14-7.41-2.83.39-5.18,3.89-5.15,8.22,0,6.75.29,13.51.45,20.26A11.6,11.6,0,0,1,360-20.83Z" transform="translate(320 462.64)"/><path class="cls-4" d="M-258.94-19.65c-4.34.85-8.42-1.3-12-4a13,13,0,0,1-4.36-6.5c-1.82-6.58-1.73-13.15,2.24-19.2,2.59-4,6-6.67,10.76-7.34,5.34-.75,10.61-.61,15.32,2.55,5.71,3.83,7.11,9.68,7,16-.08,5.22-1.56,10.06-5.53,13.84C-249.13-20.88-253.45-19.37-258.94-19.65Zm8.31-19.63c-.49-3.22-.82-6.53-1.56-9.75a5.53,5.53,0,0,0-5.22-4.7c-3-.21-4.66,1.54-5.78,4-2.49,5.55-2.35,11.42-1.72,17.25a18.12,18.12,0,0,0,2.13,6.87c2.29,4,7,3.8,9.38-.15a9.13,9.13,0,0,0,1.19-3C-251.61-32.18-251.16-35.65-250.63-39.28Z" transform="translate(320 462.64)"/><path class="cls-2" d="M160.2-23.14c.58,2.61-1.61,2.46-2.8,2.77-6.35,1.66-7.24,1.21-11.29-3.76-3,3.62-6.82,4.9-11.44,4.52-3.51-.28-6.92-2.59-7.9-6-1.63-5.59-.2-11.08,6.51-13.23,3-1,6.11-1.82,9.19-2.68,1.84-.52,3.72-1.28,3.71-3.41a6,6,0,0,0-3-5.56c-4.29-2.38-8.06-.71-11.72,1.62-.45.29-.83.68-1.78,1.46-.37-1.89-.66-3.41-.95-4.89a22.11,22.11,0,0,1,18.78-4.21c5.7,1.19,8.38,5,8.53,10.45.16,6.13-.07,12.28-.05,18.42C156-24.27,156.69-23.59,160.2-23.14ZM146.27-39.33c-2.13.85-3.92,1.42-5.59,2.26a7,7,0,0,0-3.77,8.83,6.57,6.57,0,0,0,3.48,3.58c2,.65,3.87-.61,4.88-2.54a8.52,8.52,0,0,0,1-3.32C146.36-33.31,146.27-36.1,146.27-39.33Z" transform="translate(320 462.64)"/><path class="cls-4" d="M-163.78-23c.24,2.43-1.72,2.55-3,2.81-4.41.89-6.55,2.17-11.16-3.85a12.24,12.24,0,0,1-11.22,4.45c-3.5-.33-6.33-1.53-7.72-5-1.51-3.77-1.64-7.33,1-10.75,2.38-3.05,5.85-3.7,9.22-4.67,2.63-.76,5.24-1.54,7.59-2.24a4.79,4.79,0,0,0,.13-6.24,7.58,7.58,0,0,0-8.33-2.71c-2.36.88-4.59,2.13-7.09,3.33-.29-1.28-.62-2.71-1-4.22,5.81-4.75,12.36-5.88,19.37-4.22,5.06,1.21,7.83,4.91,7.93,10.16.1,5.42-.05,10.85-.08,16.27,0,.63,0,1.26,0,1.9C-168-24.38-167.39-23.64-163.78-23Zm-14-16.2c-1.81.66-3.26,1.13-4.65,1.73-4.16,1.78-5.82,5.3-4.61,9.66.9,3.22,4.26,4.53,6.71,2.33A8,8,0,0,0-177.92-30,73.25,73.25,0,0,0-177.81-39.24Z" transform="translate(320 462.64)"/><path class="cls-6" d="M449.15-38.29H428.43c-1.08,4.87,1.41,11.35,5.12,13.07,4.9,2.27,9.33.07,14.07-2.63-.44,3.36-1.11,5.6-3.86,6.62-7.71,2.84-15.24,2.81-21.71-2.68a16.19,16.19,0,0,1-4.58-7.91c-1.74-6.65-1.18-13.22,3-19.09A12.4,12.4,0,0,1,427-56a23.17,23.17,0,0,1,12.7-.4c5.17,1.28,9.11,6.81,9.45,13C449.22-41.82,449.15-40.29,449.15-38.29Zm-9.56-3.54c-.75-3.36-1.09-6.49-2.17-9.35-1.28-3.38-5.28-3.71-6.9-.51-1.48,2.93-2.08,6.31-3.18,9.86Z" transform="translate(320 462.64)"/><path class="cls-6" d="M338.56-27.74a4.41,4.41,0,0,1-1.67,5.6,16.67,16.67,0,0,1-5.69,2.19c-5.5.7-10.88.71-15.84-2.75A15.15,15.15,0,0,1,308.83-34c-.51-4.86-.64-9.82,1.82-14.54s5.89-7.49,10.86-8.18c5.88-.82,11.78-.82,16,4.51,3.2,4,3.67,8.73,3.4,14H319.67C319.72-24.16,329.26-21,338.56-27.74Zm-7.18-14.08c-.68-3.29-1-6.27-2-9a4.85,4.85,0,0,0-3.49-2.72,5.51,5.51,0,0,0-4,2.4A14.41,14.41,0,0,0,320-41.82Z" transform="translate(320 462.64)"/><path class="cls-6" d="M24.35-38.29H2.9c.63,5.14.92,9.94,5.54,12.8C12-23.28,17.08-24.16,22-27.61c1,1.34.25,4.4-1.55,5.45C11.53-16.91-4.44-18.51-7.69-32.77A38.26,38.26,0,0,1-8.18-38c.27-6.88,1.86-13.29,8.12-17.14,3.84-2.37,8.44-2.52,12.73-1.72C22.55-55,24.44-47.72,24.35-38.29Zm-9.57-3.57c-.67-3.15-1-6.12-2-8.81a5.12,5.12,0,0,0-3.61-2.87A5.07,5.07,0,0,0,5.27-51c-1.22,2.78-1.71,5.89-2.58,9.18Z" transform="translate(320 462.64)"/><path class="cls-7" d="M-41.19-38.23h-21c0,4.73.57,9.09,4.38,12,5.19,4,10.06,1.08,15.15-1.52,0,2.58-.63,4.72-2.57,5.8-7.23,4-20.22,4.06-25.66-5.6-2.35-4.18-3.59-8.82-2.24-13.77.44-1.61.56-3.3,1-4.89,1.73-5.93,5.66-9.62,11.77-10.54,7.12-1.07,13.63-.06,17.09,6.1C-41.12-46.93-40.59-42.85-41.19-38.23Zm-9.22-3.59c-.74-3.32-1.05-6.4-2.13-9.18-1.41-3.64-5.54-3.93-7.26-.46-1.42,2.87-1.94,6.18-3,9.64Z" transform="translate(320 462.64)"/><path class="cls-7" d="M-235.34-55.85h11.14L-215.37-33c2.87-8.09,5.5-15.47,8.13-22.87h6c-7.58,18.2-15.11,36.29-22.74,54.59h-6l9.25-19.09Z" transform="translate(320 462.64)"/><path class="cls-3" d="M195.15-55.83H206.3l8.26,21.69.91.08q3.9-10.89,7.79-21.77h6L206.48-1.24h-6c1.28-2.62,2.47-5.06,3.65-7.5a98.07,98.07,0,0,0,4.27-9.13,8.11,8.11,0,0,0,.14-5.28C204.27-34,199.74-44.72,195.15-55.83Z" transform="translate(320 462.64)"/><path class="cls-2" d="M-155.81-76.17h10.69V-20.9h-10.69Z" transform="translate(320 462.64)"/><path class="cls-2" d="M-12.95-24.29l.14,2.74a15,15,0,0,1-12.73,1.2c-4.1-1.52-5-5.58-5.08-9.4-.08-6.1.42-12.21.63-18.32,0-1.07-.11-2.13-.18-3.37l-4.72-.23v-4h4.59v-9l10.53-4.86v13.7h6.19V-52H-19.7c-.14,1.23-.42,2.61-.45,4-.11,6.23-.47,12.49-.11,18.69C-19.94-23.82-18.23-22.91-12.95-24.29Z" transform="translate(320 462.64)"/><path class="cls-3" d="M394.37-52h-4.72v-3.7l5-.22v-8.77l10.6-4.92v13.78h5.84v3.62h-6.43c.49,9.55-1.11,18.94,1,28.27h6.28v2.34c-5.09,3-12,2.85-14.88-.73a11.23,11.23,0,0,1-2.42-6.2c-.16-7.67.16-15.34.29-23Z" transform="translate(320 462.64)"/><path class="cls-7" d="M43.62-20.82H33.14V-55.77H43v7.38c3-4.86,5.72-9.21,11.91-8.45v10.55c-1.75-.14-3.3-.36-4.85-.37-3.67,0-6.28,2.2-6.37,5.77C43.51-34.25,43.62-27.6,43.62-20.82Z" transform="translate(320 462.64)"/><path class="cls-5" d="M177.71-55.84v5.7l.54.69c2.82-4.27,5.66-8.51,11.53-7.24v10.31c-1.87-.11-3.43-.27-5-.29-4-.07-6.47,2.4-6.5,6.47,0,6.39,0,12.79,0,19.35H167.82v-35Z" transform="translate(320 462.64)"/><path class="cls-4" d="M479.44-46.24c-1.36-.16-2.58-.4-3.8-.43-4.73-.09-7.43,2.53-7.39,7.38,0,5.59.3,11.18.45,16.77,0,.52,0,1.05-.08,1.69H457.94V-55.76h9.72v6.3l.61.49c2.61-4.59,5.46-8.8,11.73-7.78C479.81-53.26,479.62-49.74,479.44-46.24Z" transform="translate(320 462.64)"/><path class="cls-3" d="M64.06-20.88V-55.76H74.7v34.88Z" transform="translate(320 462.64)"/><path class="cls-3" d="M69.14-76a5.61,5.61,0,0,1,6,5.75,5.86,5.86,0,0,1-5.87,6,6.22,6.22,0,0,1-6.09-6.12A6.06,6.06,0,0,1,69.14-76Z" transform="translate(320 462.64)"/><path class="cls-8" d="M394.37-52l.52.46Z" transform="translate(320 462.64)"/><path class="cls-9" d="M29.44-189.07q-25.38.13-50.75.27a20.2,20.2,0,0,1-2.42-.29c0-.15,0-.29,0-.44V-298.26c0-.42,0-.84-.08-1.43h-86.55c-.53,0-1.06.05-1.6.07,0-.63,0-1.25,0-1.88l0-50.57c.52.05,1,.13,1.58.13h86.67V-460.49c0-.63,0-1.26,0-1.89h53c0,.68,0,1.36,0,2v108.4H101a20.12,20.12,0,0,1,.65,11.13c-1.09,5.38-2.51,10.7-3.78,16.05-.71,3-1.44,6.07-.7,9.15a72.56,72.56,0,0,0,2.42,7.85c1,2.72,2.15,5.36,3.24,8-.58,0-1.16,0-1.74,0H29.39v1.88q0,53.28,0,106.56C29.4-190.52,29.42-189.8,29.44-189.07Z" transform="translate(320 462.64)"/><path class="cls-10" d="M102.82-299.73c-1.09-2.68-2.26-5.32-3.24-8a72.56,72.56,0,0,1-2.42-7.85c-.74-3.08,0-6.14.7-9.15,1.27-5.35,2.69-10.67,3.78-16.05a20.12,20.12,0,0,0-.65-11.13,10.26,10.26,0,0,0-10.18-8.81,44.12,44.12,0,0,0-12.31,1.64c-3.25.78-6.17.56-8.5-2.36a7.15,7.15,0,0,0-3.36-1.83,26.28,26.28,0,0,0-4-.65c-3.45-.54-6.13-2.24-7.37-5.57-1-2.75-1.76-5.61-2.52-8.45a9.77,9.77,0,0,1-.15-2.6c.06-4.47,3-6.77,7.31-5.56a10.27,10.27,0,0,0,10.73-2.94,32,32,0,0,0,3.3-4c1.63-2.28,3.06-4.7,4.72-7a16.22,16.22,0,0,1,13.6-7.1,33,33,0,0,0,4.76-.36c3.82-.59,5.9-3.38,5.47-7.23-.14-1.2-.45-2.38-.57-3.58a59.7,59.7,0,0,1-.7-8.2c.13-4,2-7.5,4.55-10.82.54,2.49.92,4.78,1.53,7,1.74,6.26,4.85,11.66,10.17,15.6l6.06,5,1.42,1.57.62,1,.39.87,3.06,8.15.51,1.06,2.44,5,.3.56q1.29,2.2,2.59,4.41l.31.53c.58.88,1.16,1.76,1.73,2.64l.54.75a87,87,0,0,0,15.84,17.39,1.23,1.23,0,0,0,.39.16l.92.86c4.81,4,7.71,9.62,11.84,14.21a91.39,91.39,0,0,1,7.61,9.8c1.65,2.43,2.58,5.34,4.19,7.81,2,3.05,4.46,5.78,6.53,8.79,2.44,3.54,4.75,7.18,7,10.87,3.34,5.58,8.07,9.92,12.63,14.42,6.42,6.33,12.77,12.73,17.6,20.44A43.1,43.1,0,0,1,228.11-262c.7,4.49,1.58,9,2.22,13.46.45,3.13.62,6.31,1,9.47.59,5.43,1.22,10.85,1.83,16.35a22.2,22.2,0,0,0,9.6-1.66,35.1,35.1,0,0,0,11.1-6.77,62.34,62.34,0,0,0,12.52-15,30.71,30.71,0,0,0,3-8.37,12.81,12.81,0,0,1,1.54-2.89l.61.1a25.09,25.09,0,0,1,.5,2.81c.36,5.6-1.33,10.77-4,15.53-5.15,9.21-10,18.62-16.29,27.17A58.29,58.29,0,0,1,237-198.14c-1.66,1.12-3.35,2.2-4.92,3.22a46.35,46.35,0,0,1,2.75,5.38c2,5.6.6,10.65-3,15.19A21.74,21.74,0,0,1,218-166.51a32.87,32.87,0,0,1-10.79-.15,53.79,53.79,0,0,1-18.12-6.27,64.4,64.4,0,0,0-17-6.39,68.58,68.58,0,0,0-9.91-1.31,53.8,53.8,0,0,0-8.42-.05,75.07,75.07,0,0,0-8.94,1.36,61.39,61.39,0,0,0-16.29,6c-3.68,1.92-7.53,3.66-10.45,6.76a17.79,17.79,0,0,0-2.09,2.73c-.58.93-1.23,1.47-2.4,1.13-1-1-1-1.93.2-3.58,1.85-2.61,4.43-4.32,7.09-6a62.92,62.92,0,0,1,14.15-6.8A83,83,0,0,1,146.66-182a114,114,0,0,1,14.06-1.14c7.64-.19,14.86,1.95,22,4.51,6.63,2.38,13.22,4.91,20,7a28.72,28.72,0,0,0,17.73,0,12.74,12.74,0,0,0,8.08-6.9c1.7-3.9,1.07-7.69-1.14-11.25-.22-.35-.49-.68-.7-1-1.94.51-3.81,1-5.68,1.49a4.36,4.36,0,0,1-1.24.17c-3.12-.08-6.24-.28-9.35-.26-7,0-14,.23-21,.3-4.45.05-8.9-.07-13.35,0-2.6,0-5.21.25-7.82.07,1.24-.68,2.44-1.46,3.73-2a7.86,7.86,0,0,1,2.79-.62c2.16-.08,4.33,0,6.5,0a103,103,0,0,0,28.49-4.41c2.14-.66,2.43-1.11,2.5-3.53,5.91.83,10.92,3.26,14.54,8.67l4.83-3.64c-4.13-6-10-8.19-16.68-9.34a9.68,9.68,0,0,1,0-2.53,34.54,34.54,0,0,0,.93-12.92c-.54-5.52-1.09-11-1.72-16.55-.24-2.05-.75-4.07-1.13-6.11a9.33,9.33,0,0,0-4.13-6.39,66.48,66.48,0,0,0-7.07-3.88c-3.12-1.52-6.32-2.87-9.47-4.31a6.48,6.48,0,0,1-3.54-4.19,11,11,0,0,0-4.92-6.3l0-.89-.91-.15c-.08-1.52-.17-2.94-.23-4.37a5.51,5.51,0,0,1,1.63-4c2.63-2.94,3.89-6.26,2.53-10.23a2.58,2.58,0,0,1,.22-1.64,17.4,17.4,0,0,0,.17-13.51,2.28,2.28,0,0,0-.4-.56c-1.11-.39-1.69.17-2.06,1.07-.82,1.94-1.62,3.9-2.38,5.74l-6.34-4.4.95-1.36-.18-.21-1,.52.26-1.94-.25-.08c-.44,1-.88,1.95-1.27,2.83l-3.89,1.46a15.49,15.49,0,0,0-7.89-1.53,2.93,2.93,0,0,0-3,2.47c-.17.8-.48,1.56-.76,2.45-2.4.8-4.86,1.64-6.57,3.77l-.24.34-.22.18.11.11.17-.21.33-.25c1.32-.79,2.62-1.62,4-2.35a4.32,4.32,0,0,1,2.13-.46c-4.69,3.48-8.67,7.46-10.68,13-.13.2-.26.39-.38.59l.23.18.4-.52a32.18,32.18,0,0,1,7.65-10c.44-.36.92-.68,1.39-1l.23.26c-2.07,2.76-4.22,5.48-5.15,8.94q1.89-3.16,3.77-6.33l.66.29c-.49,1.69-1,3.39-1.49,5.07s-1.16,3.33-1.58,5.05a28.52,28.52,0,0,0,3.51-9,27.33,27.33,0,0,1,1.75,2.39,5.32,5.32,0,0,1,.88,2.36,5.69,5.69,0,0,0,1.18,3.74c2,2.42,1.49,5.88-1.07,8.09-1,3.79-1,7.6-3.63,10.58l-.4-.51-1.92,1.57.73.77-1.64.18,1.36,2.08-.52,1,.17,0c-.17,1.6-.26,3.21-.51,4.8a15.56,15.56,0,0,0,1.34,10,3.28,3.28,0,0,1-.18,3.44,12.6,12.6,0,0,0-1.62,5.47c-.62,6.88-1.37,13.74-2,20.61-.24,2.49-.31,5-.64,7.48-.3,2.22-1.6,4-3.15,5.72-2.65-.41-3.84,1.29-4.69,3.48a2.75,2.75,0,0,0,1.75,3.91c3.58,1.37,5.72.74,8.13-2.24a8.11,8.11,0,0,1,2.37-2c2-1.08,2.32-3,2.52-4.89.26-2.48.11-5,.45-7.47.73-5.29,1.51-10.58,2.58-15.81a55.17,55.17,0,0,1,2.66-7.52l.58.17c-.37,2.15-.8,4.29-1.07,6.45a64.83,64.83,0,0,0-.7,7.47,7.8,7.8,0,0,0,3.86,6.89c1.65,1.05,6,0,7-1.59.82-1.31.45-3.33-1-5.08-1.56-2-2.89-4.06-2.4-6.72a21.19,21.19,0,0,1,1.69-5.08c.51,1,1,2.08,1.55,3.11a37.34,37.34,0,0,0,1.79,3.29,11.51,11.51,0,0,1,1.69,3.89,22,22,0,0,0,5.12,10.09c.39.42.76.85,1.44,1.61-2.82-.18-5.34.49-7.64-.81-3.2-1.8-5.71-.45-8.38,1.82.22.67.48,1.49.78,2.44a63.82,63.82,0,0,0,6.86,2.25,46.41,46.41,0,0,0,6,.45,7.26,7.26,0,0,1,2,.59,25.93,25.93,0,0,1-10.57.85c-4.2-.72-7.51,1.09-10.63,3.53-2.13,1.67-2.19,1.8-2,4l2.1,1.88,1,.34,0,.23H159.6c-11.71,0-23.43,0-35.14.11-2.78,0-5.55.59-8.34.85a3.19,3.19,0,0,1-3.05-1.14l-.24-.27,0-.05c-.07-.23-.13-.46-.2-.69-1.29-3.74-.25-6.29,3.23-8.15a11,11,0,0,0,1.81-1.56c1.25-2.84,3.08-3.88,6.2-3.3,2.22.42,4.39,1.12,6.61,1.55,3.32.62,4.69-.78,4-4.11a65,65,0,0,0-1.82-6.41,23.11,23.11,0,0,1-.62-12.14,32.73,32.73,0,0,1,2.4-6.19,8.87,8.87,0,0,0-.63-9c-2.64-4-5.45-7.85-8.28-11.7-1.19-1.63-2.71-1.62-3.53.21-1.69,3.8-3,7.76-4.53,11.65-.39,2.42-.93,4.82-1.14,7.26-.38,4.26-1.53,8.12-5.28,10.63a19.27,19.27,0,0,0-5.76,6,35.78,35.78,0,0,1-6.07,7.16A15.62,15.62,0,0,0,96-203.18c-1.16,2.53-1.88,5.27-2.9,7.88a11.13,11.13,0,0,1-5,6.19,21,21,0,0,1-7.67.9c-2.2-.13-4.41-.36-6.61-.31-3.14.08-6.29.52-9.43.54-2.66,0-5.32-.35-8-.54-.77-.06-1.55,0-2.32-.12a3,3,0,0,1-.94-.46c-.44-1.38-.92-2.75-1.33-4.14a7,7,0,0,1,1.56-7.29,21.39,21.39,0,0,1,5.12-3.92C62-206.33,66-206.84,70-207.1c4.53-.3,8.94-1,12.89-3.43A9.15,9.15,0,0,0,87-215.41c.78-2.23,1.73-4.41,2.43-6.66a61.69,61.69,0,0,0,2.24-8.38c.7-4.31,1.38-8.57,3.45-12.5a16.23,16.23,0,0,0,1.13-3.88c.47-2,.72-4.1,1.31-6.09q3-10,6.16-19.94C106.63-281.94,106-290.87,102.82-299.73Zm75.49-3.49-.41-.3-1,1.76.4.24Zm-24.63,24.83-.07-.06v.1Z" transform="translate(320 462.64)"/><path class="cls-11" d="M-23.67-462.38c0,.63,0,1.26,0,1.89v108.56h-86.67c-.53,0-1.06-.08-1.58-.13q0-40.79,0-81.57v-29h86.63A11.75,11.75,0,0,1-23.67-462.38Z" transform="translate(320 462.64)"/><path class="cls-11" d="M-111.94-299.62c.54,0,1.07-.07,1.6-.07h86.55c0,.59.08,1,.08,1.43v108.73c0,.15,0,.29,0,.44l-1.89,0h-86.25a7.73,7.73,0,0,1-.07-.82Z" transform="translate(320 462.64)"/><path class="cls-12" d="M117.47-414.76c-5.32-3.94-8.43-9.34-10.17-15.6-.61-2.22-1-4.51-1.53-7-2.51,3.32-4.42,6.77-4.55,10.82a59.7,59.7,0,0,0,.7,8.2c.12,1.2.43,2.38.57,3.58.43,3.85-1.65,6.64-5.47,7.23a33,33,0,0,1-4.76.36,16.22,16.22,0,0,0-13.6,7.1c-1.66,2.26-3.09,4.68-4.72,7a32,32,0,0,1-3.3,4,10.27,10.27,0,0,1-10.73,2.94c-4.3-1.21-7.25,1.09-7.31,5.56a9.77,9.77,0,0,0,.15,2.6c.76,2.84,1.49,5.7,2.52,8.45,1.24,3.33,3.92,5,7.37,5.57a26.28,26.28,0,0,1,4,.65A7.15,7.15,0,0,1,70-361.48c2.33,2.92,5.25,3.14,8.5,2.36a44.12,44.12,0,0,1,12.31-1.64A10.26,10.26,0,0,1,101-351.95H29.39v-108.4c0-.67,0-1.35,0-2a9.83,9.83,0,0,1,1.52-.25h86.54c0,.54.09.91.09,1.29q0,22.94,0,45.87C117.52-415.24,117.49-415,117.47-414.76Z" transform="translate(320 462.64)"/><path class="cls-12" d="M102.82-299.73c3.14,8.86,3.81,17.79.9,26.87q-3.18,9.94-6.16,19.94c-.59,2-.84,4.07-1.31,6.09a16.23,16.23,0,0,1-1.13,3.88c-2.07,3.93-2.75,8.19-3.45,12.5a61.69,61.69,0,0,1-2.24,8.38c-.7,2.25-1.65,4.43-2.43,6.66a9.15,9.15,0,0,1-4.13,4.88c-4,2.41-8.36,3.13-12.89,3.43-4,.26-7.94.77-11.5,2.65a21.39,21.39,0,0,0-5.12,3.92,7,7,0,0,0-1.56,7.29c.41,1.39.89,2.76,1.33,4.14l-23.69,0c0-.73,0-1.45,0-2.18q0-53.28,0-106.56v-1.88h71.69C101.66-299.69,102.24-299.72,102.82-299.73Z" transform="translate(320 462.64)"/><path class="cls-13" d="M88.08-189.11a11.13,11.13,0,0,0,5-6.19c1-2.61,1.74-5.35,2.9-7.88a15.62,15.62,0,0,1,3.27-4.67,35.78,35.78,0,0,0,6.07-7.16,19.27,19.27,0,0,1,5.76-6c3.75-2.51,4.9-6.37,5.28-10.63.21-2.44.75-4.84,1.14-7.26,0,.63.07,1.26.07,1.89q0,17.53,0,35.09c0,.81.11,1.62.16,2.43A11,11,0,0,1,115.9-198c-3.48,1.86-4.52,4.41-3.23,8.15.07.23.13.46.2.69Z" transform="translate(320 462.64)"/><path class="cls-10" d="M156.92-289.6l.2-.39.18.08-.19.53A2,2,0,0,0,156.92-289.6Z" transform="translate(320 462.64)"/><path class="cls-10" d="M157.36-292.11l.37-.33.16.12-.3.47Z" transform="translate(320 462.64)"/><path class="cls-10" d="M157.11-289.38l-.32.19-.12-.11.25-.3A2,2,0,0,1,157.11-289.38Z" transform="translate(320 462.64)"/><path class="cls-14" d="M112.83-189.07l.24.27Z" transform="translate(320 462.64)"/><polygon class="cls-15" points="473.68 184.25 473.6 184.29 473.61 184.19 473.68 184.25"/><path class="cls-1" d="M-62-117.81a3.29,3.29,0,0,0-4.47-1c-5.71,2.6-11.5,5-17.27,7.5a7.52,7.52,0,0,1-1.14.33l-4.67-5.88c8.8-2.45,17.9-5,25.19-11.61H-76.11v-6.6h39.47v6.42H-53l-5.4,5,8.11,8.88,14.82-11.06,6.85,5.5L-39-114.22c1.94,9.6,8.32,14.77,16.35,18.12-1.89,2.59-3.73,5.13-5.83,8-8.31-5.1-14.12-12.15-16.21-22.28l-2.89,1.79c0,4.24.27,8.13-.06,12-.56,6.5-4.32,10.56-10.53,12.41-1.31.39-2.6.81-4,1.26l-3.57-8.39c4.2.38,8.31-.06,10.39-4.36,1.07-2.23,1.72-4.84.42-7.59-9,8.43-19.46,14-30.63,17.87l-4.89-6.76c12.71-3.11,24.57-8.14,33.59-18.46-.29-.49-.57-1-.86-1.43l-.46-.7c-8.56,5.69-16.92,11.34-26.57,14.6l-4.34-6.08C-79.33-106.67-69.77-110.21-62-117.81Z" transform="translate(320 462.64)"/><path class="cls-4" d="M220.67-141H244.8v36.23h-7.72v-4.65H220.39v25.88h-8.16v-25.93H194.91v4.73H187.6v-36.37h25c-.2-4.81-.4-9.53-.61-14.39h8.33v14.21Zm-8.23,24.66v-18.38H195.12v18.38Zm7.93-18.44v18.37h16.76v-18.37Z" transform="translate(320 462.64)"/><path class="cls-3" d="M133.2-112.93v1.52h17.64v29h-6.19c-.06-.92-.12-1.82-.19-2.79H102.87l-.16,3.14-6.09.28v-29.62h17.1c.06-.8.11-1.45.16-2.1H87.82v-4.71h40.25c.44,0,.88-.07,1.32-.1l27.65,0h2.53v5h-4.41c-.13-.1-.27-.3-.41-.3q-10.42,0-20.85,0C133.67-113.66,133.43-113.19,133.2-112.93ZM107.3-97.2l-3-4.59c3.3-.72,6.7-1.3,9.16-4.73H102.89v10.34h41.89v-2c-.72,0-1.34,0-1.95,0-4-.13-8.06-.11-12.07-.46-2.69-.23-3.4-1.31-3.41-4v-3.93h-7.9C117.89-101.31,113.86-98.25,107.3-97.2Zm37.52,4.91H102.88v2.36h41.94Zm0-14.18H133.19v2.76c3.82,1.56,7.7,1,11.62.74Zm-17.53-4.93v-2.16h-7.45c0,.8.07,1.45.11,2.16Z" transform="translate(320 462.64)"/><path class="cls-4" d="M69.81-92.15,65-85.06C61.38-88.18,55-95.15,49.35-108.9c-2.65,8.89-5.5,17.69-10.8,25.68l-4.42-4.91c-.15,1.5-.23,2.4-.33,3.44H27.68c-.08-1-.17-2-.27-3.23h-18v3.44H2.73v-19.88H34.1v14.47a16.51,16.51,0,0,0,4.45-6.33,54.13,54.13,0,0,0,4.91-18.18c.35-3.61.89-7.2,1.35-10.89H36.7v-6.19l8.45.4v-24.13h6.63v23.91H66.37v5.75h-14C52.73-111.49,60.35-98.8,69.81-92.15Zm-42-6.66H9.4v5.38H27.76Z" transform="translate(320 462.64)"/><path class="cls-5" d="M-184.87-84.4v-6.69h32.36v-5.78h-24v-6.36h23.88v-5.08H-181v-6.32h64.11v6.32h-28.19v5.09h24.73v6.36H-145.1v5.73h31.57v6.73Z" transform="translate(320 462.64)"/><path class="cls-4" d="M-161.54-147.86c.72-2.81,1.45-5.7,2.22-8.74l10.21,2.45-5.08,6.27H-123v28.7h-51.13v-28.68Zm-5.6,11.68h37V-142h-37Zm0,11h37v-5.23h-37Z" transform="translate(320 462.64)"/><path class="cls-7" d="M121.44-124.79a19.78,19.78,0,0,1,2,.14c1.34.23,2.68.53,4,.8v.71l-1-.51v3.94H93.31V-154.5H127.2c-.31,1.78.35,3.59-.31,4.87h-14l1.91,1.4-2.17,1.85c4.65,1.31,9.12-.31,13.64.27v4.3h-8.45v3.48h9.61v4.54h-8.6l7.48,4.84-4.84,3.61-6-5.47-8.52,5.63-1.37-.34-3.42-3.7c3-1.08,6.1-1.88,8.62-4.66h-10v-4.52h4l.13-.37L101-141.3l6.47-7.53,0-.8-8,0-.31.31V-125l.31.3,6.07,0,1.65,0Zm-13.21-16.88-3,3.29h6.9v-3.29Z" transform="translate(320 462.64)"/><path class="cls-1" d="M-32.72-140.13H-80.06l-.38.31v10.37c-2.58,1.23-5.2.31-7.84.64v-18h28c-.62-2.19-1.2-4.25-1.83-6.45l8.34-1.43,2.38,7.89h26.62v16.69h-7.61v-9.72Z" transform="translate(320 462.64)"/><path class="cls-2" d="M.85-134.82H35.09v22.06H.85Zm14,16.71v-3.36H7.33v3.36Zm13.71-3.36H21.32v3.35H28.6Zm-21.24-4.8h7.52v-3.18H7.36Zm14,0h7.24v-3.15H21.33Z" transform="translate(320 462.64)"/><path class="cls-1" d="M294.9-131.39h7.5v8.13c0,8.58.05,17.16,0,25.74,0,3.82,1.21,3.91,3.91,4.22a52.51,52.51,0,0,0,8.13.07c3.14-.15,4.61-2.39,5.51-5,.56-1.64.84-3.37,1.22-5L329-98.63c-.55,3.08-1.29,6.6-3.58,9.39a9.57,9.57,0,0,1-4.51,2.72C316-85.08,311-85.24,306-85.34a26,26,0,0,1-6.35-1.09c-3.22-.91-4.74-3.09-4.74-6.4q0-13.73,0-27.45Z" transform="translate(320 462.64)"/><path class="cls-4" d="M127.49-123.14v-.71l8-1.47.1-.55-5.39-4.56,2.93-2.2-.23-.71h-4v-4.89l3.37-.46h0l.6.31h22.77A30.65,30.65,0,0,1,147-126.3c4,1.69,8,1.3,11.73,1.27-.58,2.11-1.17,4.22-1.75,6.34a35.73,35.73,0,0,1-15.59-4.37,35.31,35.31,0,0,1-3.65,1.73c-2.75.94-5.56,1.75-8.34,2.62Zm7.9-10.57-.28.43,6.3,5.05,5.33-5-.32-.44Z" transform="translate(320 462.64)"/><path class="cls-3" d="M132.21-138.69h0L127-142c6-2.47,4.41-7.76,4.66-12.43h19.39v9.07l7.34-.62v5.38c-1.61.21-3.22.48-4.85.61a40.25,40.25,0,0,1-4.53.12c-2.08-.06-3.38-1.43-3.69-4a28,28,0,0,1,0-3.78c0-.49.07-1,.12-1.58h-8.05c0,4-1.24,7.57-4.64,10.07Z" transform="translate(320 462.64)"/><path class="cls-4" d="M19.4-152.51H37.1v15.63H19.4ZM31-147.23H25.47v4.88H31Z" transform="translate(320 462.64)"/><path class="cls-2" d="M-.69-136.92v-15.59H16.47v15.59ZM5.59-147.3v4.92h5.12v-4.92Z" transform="translate(320 462.64)"/><path class="cls-3" d="M39.58-111.37v5.31H-3.19v-5.31Z" transform="translate(320 462.64)"/><path class="cls-5" d="M272.5-102.21c3.91-8.45,5.29-17.39,6.26-26.75l8.45.77c-2.06,9.6-4.06,18.88-6.07,28.23Z" transform="translate(320 462.64)"/><path class="cls-1" d="M344.87-111.86l-8.47,4.33c-1.85-3.37-3.55-6.79-5.54-10s-4.32-6.3-6.7-9.73l6.19-4Z" transform="translate(320 462.64)"/><path class="cls-1" d="M310.14-134.25l-11.7-14.17,5.26-3.72,13.77,12.36Z" transform="translate(320 462.64)"/><path class="cls-3" d="M59.35-135c-2-4.47-3.88-8.74-5.88-13.25l5.52-3c2.3,4.66,4.43,9,6.65,13.51Z" transform="translate(320 462.64)"/><path class="cls-8" d="M220.67-141l-.33-.29Z" transform="translate(320 462.64)"/><path class="cls-8" d="M-80.44-139.82l.38-.31Z" transform="translate(320 462.64)"/><path class="cls-8" d="M-32.72-140.13l.34.31Z" transform="translate(320 462.64)"/><path class="cls-16" d="M107.42-149.63l0,.8" transform="translate(320 462.64)"/><path class="cls-16" d="M99.46-124.75l-.31-.3" transform="translate(320 462.64)"/><path class="cls-16" d="M99.15-149.3l.31-.31" transform="translate(320 462.64)"/></svg>