<?xml version="1.0" encoding="utf-8"?>
<!-- Generator: Adobe Illustrator 26.0.1, SVG Export Plug-In . SVG Version: 6.00 Build 0)  -->
<svg version="1.1" id="Calque_1" xmlns="http://www.w3.org/2000/svg" xmlns:xlink="http://www.w3.org/1999/xlink" x="0px" y="0px"
	 viewBox="0 0 200 200" style="enable-background:new 0 0 200 200;" xml:space="preserve">
<style type="text/css">
	.st0{fill:#2185C7;}
	.st1{fill:#868686;}
</style>
<path class="st0" d="M95.6,95.6"/>
<g>
	<path class="st1" d="M118.6,53.1c-2.7-2.9-6.3-3.8-10.1-2.6c-2.3,0.8-4.6,2.3-6.6,4.4c-2.4,2.6-7.6,5.3-11.2,6.5
		c-3.6,1.2-9.4,1.9-12.8,1.2c-2.8-0.6-5.6-0.5-7.9,0.3c-3.8,1.2-6.2,4.1-6.7,8c-0.9,6.5,5.2,20.7,10.5,33.2
		c2.3,5.4,4.5,10.5,5.5,13.8c3.8,11.9,10.3,22.4,18.2,29.7c2.2,2.1,4.5,2.9,6.5,2.2c2.6-0.8,3.9-4,3.4-8.2c-0.5-4-1.4-8.7-2.2-13.2
		l0-0.2c-2-10.7-4.4-24.1-0.9-25.2c3.5-1.1,9.3,11.1,14,21c2,4.2,4,8.5,6,12.1c2,3.7,4.9,5.5,7.5,4.7c1.9-0.6,3.3-2.6,4-5.6
		c2.2-10.5,1.3-22.8-2.6-34.7c-1.1-3.3-2.3-8.7-3.6-14.4l0-0.1C126.5,72.9,123.1,57.9,118.6,53.1z M127.4,86.6
		c1.3,6,2.5,11.2,3.6,14.6c3.7,11.5,4.6,23.4,2.5,33.6c-0.5,2.2-1.3,3.6-2.5,4c-1.5,0.5-3.5-0.9-5-3.7c-2-3.6-4.1-8.1-5.9-12
		c-6-12.8-11.3-23.9-16.6-22.1s-3.1,13.7-0.5,27.7l0,0.2c0.8,4.5,1.7,9.1,2.2,13.1c0.4,3.1-0.4,5.4-1.9,5.9
		c-1.2,0.4-2.7-0.3-4.4-1.8c-7.6-7-13.9-17.2-17.6-28.7c-1.1-3.4-3.2-8.2-5.5-13.8l-0.1-0.2c-4.9-11.6-11.1-26-10.3-32
		c0.5-3.9,3.1-5.5,5.2-6.2c2-0.6,4.4-0.7,6.8-0.2c4,0.8,10.1-0.1,13.9-1.3c3.8-1.2,9.3-4.1,12.1-7.1c1.7-1.8,3.7-3.2,5.7-3.8
		c2.1-0.7,5.2-0.9,7.9,2C121.2,59,124.6,74.3,127.4,86.6z"/>
	<path class="st1" d="M118.6,91.2c-9.6,4.9-20.8,8.6-31.5,10.4c-0.3,0-0.5,0.2-0.7,0.4c-0.2,0.2-0.2,0.5-0.2,0.8
		c0,0.3,0.2,0.5,0.4,0.7c0.2,0.2,0.5,0.2,0.8,0.2c5.2-0.9,10.5-2.2,15.7-3.9c5.8-1.9,11.3-4.1,16.5-6.8c0.5-0.3,0.7-0.9,0.5-1.5
		c-0.1-0.3-0.4-0.4-0.6-0.5C119.2,91,118.9,91.1,118.6,91.2z"/>
	<path class="st1" d="M110.4,56.3c-1.3,0.4-2.8,1.4-4,2.8c-3.6,3.9-10.2,7-13.7,8.1c-0.6,0.2-0.9,0.8-0.7,1.4
		c0.2,0.6,0.8,0.9,1.4,0.7c3.7-1.2,10.7-4.5,14.6-8.7c1-1.1,2.1-1.9,3.1-2.2c0.9-0.3,1.2-0.1,1.6,0.4c0.4,0.4,1.1,0.5,1.5,0
		c0.2-0.2,0.3-0.5,0.3-0.8c0-0.3-0.1-0.6-0.3-0.8C113.4,56.4,112.4,55.6,110.4,56.3z"/>
	<path class="st1" d="M77.6,69.8c0.1-0.3,0-0.6-0.2-0.8c-0.2-0.2-0.4-0.4-0.7-0.5c-1.8-0.4-3.6-0.3-4.9,0.1c-2,0.6-2.4,1.9-2.6,3.1
		c-0.6,4.3,4.3,16.4,9.1,27.8c0.2,0.5,0.8,0.8,1.3,0.6l0.1,0c0.3-0.1,0.5-0.3,0.6-0.6c0.1-0.3,0.1-0.6,0-0.8
		c-2.8-6.7-9.5-22.4-8.9-26.6c0.1-0.7,0.2-1,1.1-1.3c1-0.3,2.4-0.3,3.8-0.1C76.9,70.8,77.5,70.4,77.6,69.8z M79.6,99.8L79.6,99.8
		L79.6,99.8L79.6,99.8z"/>
</g>
</svg>
