<?xml version="1.0" encoding="utf-8"?>
<!-- Generator: Adobe Illustrator 26.0.1, SVG Export Plug-In . SVG Version: 6.00 Build 0)  -->
<svg version="1.1" id="Calque_1" xmlns="http://www.w3.org/2000/svg" xmlns:xlink="http://www.w3.org/1999/xlink" x="0px" y="0px"
	 viewBox="0 0 200 200" style="enable-background:new 0 0 200 200;" xml:space="preserve">
<style type="text/css">
	.st0{fill:#2185C7;}
	.st1{fill:#C2272D;}
	.st2{fill:#868686;}
</style>
<path class="st0" d="M95.6,95.6"/>
<g>
	<path class="st1" d="M120.3,52.5c-7.3,0-14.3,2.3-20.3,6.5c-5.9-4.3-12.9-6.5-20.3-6.5C60.6,52.5,45,68.1,45,87.2
		c0,27.1,52.1,58.8,54.4,60.1c0.2,0.1,0.4,0.2,0.6,0.2c0.2,0,0.5-0.1,0.7-0.2C102.9,146,155,114,155,87.2
		C155,68.1,139.4,52.5,120.3,52.5z M120.3,55c17.8,0,32.3,14.5,32.3,32.2c0,24.2-46.3,53.7-52.5,57.6c-6.3-3.9-52.5-33.5-52.5-57.6
		C47.5,69.4,61.9,55,79.7,55c7.1,0,13.9,2.3,19.5,6.6c0.4,0.3,1.1,0.3,1.5,0C106.4,57.2,113.2,55,120.3,55z"/>
	<path class="st1" d="M60.4,78.5c0.2,0.1,0.4,0.1,0.6,0.1c0.5,0,0.9-0.3,1.1-0.7c3.5-6.6,10.2-10.7,17.6-10.7c0.7,0,1.2-0.6,1.2-1.2
		c0-0.7-0.6-1.2-1.2-1.2c-8.3,0-15.9,4.6-19.8,12c-0.2,0.3-0.2,0.6-0.1,0.9C59.9,78.1,60.1,78.3,60.4,78.5z"/>
	<path class="st1" d="M58.6,88.4c0.7,0,1.2-0.6,1.2-1.2c0-1.8,0.2-3.6,0.7-5.3c0.1-0.3,0-0.6-0.1-0.9c-0.2-0.3-0.4-0.5-0.7-0.6
		c-0.3-0.1-0.7-0.1-0.9,0.1c-0.3,0.2-0.5,0.4-0.6,0.7c-0.5,1.9-0.8,3.9-0.8,6C57.4,87.9,57.9,88.4,58.6,88.4z"/>
	<path class="st2" d="M98.9,72.5L87.4,110L77.2,84.6c-0.2-0.5-0.6-0.8-1.1-0.8c-0.5,0-0.9,0.3-1.1,0.7l-7.5,15.6H55.5
		c-0.7,0-1.2,0.6-1.2,1.2c0,0.7,0.6,1.2,1.2,1.2h12.6c0.5,0,0.9-0.3,1.1-0.7l6.6-13.8l10.5,26c0.2,0.5,0.6,0.8,1.1,0.8h0.1
		c0.5,0,1-0.4,1.1-0.9l11.3-37l11.3,37c0.2,0.5,0.6,0.8,1.1,0.9c0,0,0,0,0.1,0c0.5,0,0.9-0.3,1.1-0.8l10.5-26l6.6,13.7
		c0.2,0.4,0.6,0.7,1.1,0.7h12.6c0.7,0,1.2-0.6,1.2-1.2c0-0.7-0.6-1.2-1.2-1.2h-11.9l-7.5-15.6c-0.2-0.4-0.6-0.7-1.1-0.7c0,0,0,0,0,0
		c-0.5,0-0.9,0.3-1.1,0.8L112.7,110l-11.5-37.5c-0.2-0.5-0.6-0.8-1.2-0.8C99.5,71.7,99,72,98.9,72.5z"/>
</g>
</svg>
