<?xml version="1.0" encoding="utf-8"?>
<!-- Generator: Adobe Illustrator 26.0.1, SVG Export Plug-In . SVG Version: 6.00 Build 0)  -->
<svg version="1.1" id="Calque_1" xmlns="http://www.w3.org/2000/svg" xmlns:xlink="http://www.w3.org/1999/xlink" x="0px" y="0px"
	 viewBox="0 0 200 200" style="enable-background:new 0 0 200 200;" xml:space="preserve">
<style type="text/css">
	.st0{fill:#2185C7;}
	.st1{fill:#868686;}
</style>
<path class="st0" d="M95.6,95.6"/>
<g>
	<g>
		<g>
			<path class="st1" d="M97.3,142c-0.2,0-0.5-0.1-0.7-0.3l-14.2-14.2c-0.4-0.4-0.4-0.9,0-1.3c0.4-0.4,0.9-0.4,1.3,0l13.5,13.5
				l18.4-18.4v-33l-8.7-8.7c-0.4-0.4-0.4-0.9,0-1.3c0.4-0.4,0.9-0.4,1.3,0l9,9c0.2,0.2,0.3,0.4,0.3,0.7v33.8c0,0.2-0.1,0.5-0.3,0.7
				l-19.3,19.3C97.8,141.9,97.5,142,97.3,142z"/>
		</g>
		<g>
			<path class="st1" d="M115.7,144.3c-0.2,0-0.5-0.1-0.7-0.3c-0.4-0.4-0.4-0.9,0-1.3l15.3-15.3V82.3l-13-13c-0.4-0.4-0.4-0.9,0-1.3
				c0.4-0.4,0.9-0.4,1.3,0l13.3,13.3c0.2,0.2,0.3,0.4,0.3,0.7v45.9c0,0.2-0.1,0.5-0.3,0.7L116.3,144
				C116.2,144.2,115.9,144.3,115.7,144.3z"/>
		</g>
		<g>
			<path class="st1" d="M78.9,144.3c-0.2,0-0.5-0.1-0.7-0.3l-16.6-16.6c-0.4-0.4-0.4-0.9,0-1.3c0.4-0.4,0.9-0.4,1.3,0l16.6,16.6
				c0.4,0.4,0.4,0.9,0,1.3C79.4,144.2,79.1,144.3,78.9,144.3z"/>
		</g>
	</g>
	<g>
		<g>
			<g>
				<path class="st1" d="M142.2,157.8H52.7c-0.3,0-0.6-0.1-0.7-0.4c-0.2-0.2-0.2-0.5-0.2-0.8l1.9-7.2c1.1-3.9,4.8-7,8.5-7h70.5
					c3.7,0,7.4,3.1,8.5,7l1.9,7.2c0.1,0.3,0,0.6-0.2,0.8C142.7,157.7,142.5,157.8,142.2,157.8z M53.9,156H141l-1.6-6.1
					c-0.8-3.1-3.8-5.6-6.7-5.6H62.2c-2.8,0-5.8,2.5-6.7,5.6L53.9,156z"/>
			</g>
			<g>
				<g>
					<path class="st1" d="M131,51.3c-0.2,0-0.5-0.1-0.7-0.3c-0.4-0.4-0.4-0.9,0-1.3l9.5-9.5l-4.8-4.8l-9.5,9.5
						c-0.4,0.4-0.9,0.4-1.3,0c-0.4-0.4-0.4-0.9,0-1.3l10.1-10.1c0.2-0.2,0.4-0.3,0.7-0.3l0,0c0.2,0,0.5,0.1,0.7,0.3l6.1,6.1
						c0.2,0.2,0.3,0.4,0.3,0.7c0,0.2-0.1,0.5-0.3,0.7l-10.1,10.1C131.5,51.3,131.2,51.3,131,51.3z"/>
				</g>
				<g>
					<path class="st0" d="M85.4,96.9c-0.2,0-0.5-0.1-0.7-0.3l-6.1-6.1c-0.2-0.2-0.3-0.4-0.3-0.7c0-0.2,0.1-0.5,0.3-0.7l2.6-2.6
						c0.4-0.4,0.9-0.4,1.3,0c0.4,0.4,0.4,0.9,0,1.3l-2,2l4.8,4.8l2-2c0.4-0.4,0.9-0.4,1.3,0c0.4,0.4,0.4,0.9,0,1.3l-2.6,2.6
						C85.9,96.8,85.7,96.9,85.4,96.9z"/>
				</g>
				<g>
					<path class="st1" d="M92.7,94.9L92.7,94.9c-0.2,0-0.5-0.1-0.7-0.3L80.7,83.3c-0.4-0.4-0.4-0.9,0-1.3l38.8-38.8
						c0.4-0.4,0.9-0.4,1.3,0l11.3,11.3c0.2,0.2,0.3,0.4,0.3,0.7c0,0.2-0.1,0.5-0.3,0.7L93.3,94.6C93.2,94.8,92.9,94.9,92.7,94.9z
						 M82.7,82.7l10,10l37.5-37.5l-10-10L82.7,82.7z"/>
				</g>
				<g>
					<path class="st0" d="M85.9,124.5H49c-0.5,0-0.9-0.4-0.9-0.9v-3.5c0-0.5,0.4-0.9,0.9-0.9h36.9c0.5,0,0.9,0.4,0.9,0.9v3.5
						C86.8,124.1,86.4,124.5,85.9,124.5z M49.9,122.7h35v-1.6h-35V122.7z"/>
				</g>
				<g>
					<g>
						<path class="st1" d="M97.5,155.4c-2.8,0-5.1-2.3-5.1-5.1c0-2.8,2.3-5,5.1-5c2.8,0,5,2.3,5,5
							C102.5,153.1,100.2,155.4,97.5,155.4z M97.5,147.2c-1.8,0-3.2,1.4-3.2,3.2c0,1.8,1.4,3.2,3.2,3.2c1.8,0,3.2-1.4,3.2-3.2
							C100.7,148.6,99.2,147.2,97.5,147.2z"/>
					</g>
				</g>
				<g>
					<path class="st1" d="M105.6,75.8c-3.5,0-6.3-2.8-6.3-6.3c0-3.5,2.8-6.3,6.3-6.3c3.5,0,6.3,2.8,6.3,6.3
						C111.9,73,109.1,75.8,105.6,75.8z M105.6,65c-2.5,0-4.5,2-4.5,4.5c0,2.5,2,4.5,4.5,4.5c2.5,0,4.5-2,4.5-4.5
						C110.1,67,108,65,105.6,65z"/>
				</g>
			</g>
		</g>
	</g>
</g>
</svg>
