<?xml version="1.0" encoding="utf-8"?>
<!-- Generator: Adobe Illustrator 26.0.1, SVG Export Plug-In . SVG Version: 6.00 Build 0)  -->
<svg version="1.1" id="Calque_1" xmlns="http://www.w3.org/2000/svg" xmlns:xlink="http://www.w3.org/1999/xlink" x="0px" y="0px"
	 viewBox="0 0 200 200" style="enable-background:new 0 0 200 200;" xml:space="preserve">
<style type="text/css">
	.st0{fill:#2185C7;}
	.st1{fill:#2285C7;}
	.st2{fill:#868686;}
</style>
<path class="st0" d="M95.6,95.6"/>
<g>
	<path class="st1" d="M128.7,116.8c-0.4,0-0.8-0.2-1-0.6l-5.3-12.4h-8.3c-0.4,0-0.8-0.2-1-0.6l-6.2-13l-11.4,26
		c-0.2,0.3-0.5,0.6-0.9,0.6c-0.4,0-0.8-0.1-1-0.5l-7.9-11.8h-8.2c-0.4,0-0.8-0.2-1-0.6l-5.8-11.1l-5,10.7c-0.2,0.4-0.6,0.6-1,0.6h0
		L46,104c-0.3,0-0.6-0.1-0.8-0.3c-0.2-0.2-0.3-0.4-0.3-0.7l0-5.5c0-0.6,0.5-1,1.1-1h0l14.4,0l9.2-19.7c0.2-0.4,0.5-0.6,1-0.6
		c0.4,0,0.8,0.2,1,0.6L82,96.9h7.7c0.4,0,0.7,0.2,0.9,0.5l2.8,4.2l12.4-28.4c0.2-0.4,0.5-0.6,1-0.6c0,0,0,0,0,0c0.4,0,0.8,0.2,1,0.6
		l10.9,23.1h8.5c0.4,0,0.8,0.3,1,0.6l0.1,0.1l0.1-0.4c0.1-0.4,0.6-0.7,1-0.7h0l24.6,0c0.3,0,0.6,0.1,0.8,0.3
		c0.2,0.2,0.3,0.4,0.3,0.7l0,5.5c0,0.6-0.5,1-1.1,1h0l-19.7,0l-4.6,12.6C129.6,116.5,129.2,116.8,128.7,116.8
		C128.8,116.8,128.8,116.8,128.7,116.8z M78.3,102.4h8.1c0.4,0,0.7,0.2,0.9,0.5l7.2,10.7L106,87.2c0.2-0.4,0.5-0.6,1-0.6
		c0,0,0,0,0,0c0.4,0,0.8,0.2,1,0.6l6.9,14.6h8.3c0.4,0,0.8,0.3,1,0.6l4.5,10.5l3.9-10.8c0.1-0.4,0.6-0.7,1-0.7h0l19.4,0l0-3.5
		l-22.8,0l-0.8,2.3c-0.1,0.4-0.5,0.7-1,0.7c-0.4,0-0.9-0.2-1-0.6l-0.9-2H118c-0.4,0-0.8-0.2-1-0.6l-10.2-21.5l-12.3,28
		c-0.2,0.3-0.5,0.6-0.9,0.6c-0.4,0-0.8-0.1-1-0.5l-3.6-5.4h-7.7c-0.4,0-0.8-0.2-1-0.6l-9.7-18.7l-8.5,18.3c-0.2,0.4-0.6,0.6-1,0.6h0
		l-14.1,0l0,3.5l17.2,0.1L69.9,90c0.2-0.4,0.5-0.6,1-0.6c0.4,0,0.8,0.2,1,0.6L78.3,102.4z"/>
	<path class="st2" d="M151.1,144h-4.2c-0.6,0-1.1-0.4-1.1-1v-5H54.2v5c0,0.6-0.5,1-1.1,1h-4.2c-10.3,0-18.7-7.9-18.7-17.5V62.5
		c0-9.7,8.4-17.5,18.7-17.5h102.1c10.3,0,18.7,7.9,18.7,17.5v63.9C169.7,136.1,161.4,144,151.1,144z M147.9,142h3.2
		c9.1,0,16.5-7,16.5-15.5V62.5c0-8.6-7.4-15.5-16.5-15.5H48.9c-9.1,0-16.5,7-16.5,15.5v63.9c0,8.6,7.4,15.5,16.5,15.5h3.1v-5
		c0-0.6,0.5-1,1.1-1h93.7c0.6,0,1.1,0.4,1.1,1V142z M47.1,102.8c0,0,0,0.1,0,0.1v23.5c0,1,0.8,1.8,1.9,1.8h102.1
		c1,0,1.9-0.8,1.9-1.8l0-29.3c0,0,0-0.1,0-0.1V62.5c0-1-0.8-1.7-1.9-1.7H48.9c-1,0-1.9,0.8-1.9,1.7L47.1,102.8z M151.1,130.2H48.9
		c-2.2,0-4-1.7-4-3.8v-23.3c0,0,0-0.1,0-0.1l0-2.8V62.5c0-2.1,1.8-3.8,4-3.8h102.1c2.2,0,4,1.7,4,3.8v34.4c0,0,0,0.1,0,0.1l0,29.5
		C155.1,128.5,153.3,130.2,151.1,130.2z M161.3,97.8c-2.7,0-4.9-2.1-4.9-4.6s2.2-4.6,4.9-4.6c2.7,0,4.9,2.1,4.9,4.6
		S164.1,97.8,161.3,97.8z M161.3,90.5c-1.5,0-2.8,1.2-2.8,2.6s1.3,2.6,2.8,2.6c1.5,0,2.8-1.2,2.8-2.6S162.9,90.5,161.3,90.5z
		 M38.7,97.8c-2.7,0-4.9-2.1-4.9-4.6s2.2-4.6,4.9-4.6c2.7,0,4.9,2.1,4.9,4.6S41.4,97.8,38.7,97.8z M38.7,90.5
		c-1.5,0-2.8,1.2-2.8,2.6s1.3,2.6,2.8,2.6c1.5,0,2.8-1.2,2.8-2.6S40.2,90.5,38.7,90.5z M161.3,81.3c-2.7,0-4.9-2.1-4.9-4.6
		s2.2-4.6,4.9-4.6c2.7,0,4.9,2.1,4.9,4.6S164.1,81.3,161.3,81.3z M161.3,74.1c-1.5,0-2.8,1.2-2.8,2.6s1.3,2.6,2.8,2.6
		c1.5,0,2.8-1.2,2.8-2.6S162.9,74.1,161.3,74.1z M38.7,81.3c-2.7,0-4.9-2.1-4.9-4.6s2.2-4.6,4.9-4.6c2.7,0,4.9,2.1,4.9,4.6
		S41.4,81.3,38.7,81.3z M38.7,74.1c-1.5,0-2.8,1.2-2.8,2.6s1.3,2.6,2.8,2.6c1.5,0,2.8-1.2,2.8-2.6S40.2,74.1,38.7,74.1z"/>
	<path class="st2" d="M141.9,155H58.1c-3.3,0-6-2.5-6-5.7V137c0-0.6,0.5-1,1.1-1h93.7c0.6,0,1.1,0.4,1.1,1v12.4
		C147.9,152.5,145.2,155,141.9,155z M54.2,138v11.3c0,2,1.7,3.6,3.9,3.6h83.8c2.1,0,3.9-1.6,3.9-3.6V138H54.2z"/>
</g>
</svg>
