<?xml version="1.0" encoding="utf-8"?>
<!-- Generator: Adobe Illustrator 26.0.1, SVG Export Plug-In . SVG Version: 6.00 Build 0)  -->
<svg version="1.1" id="Calque_1" xmlns="http://www.w3.org/2000/svg" xmlns:xlink="http://www.w3.org/1999/xlink" x="0px" y="0px"
	 viewBox="0 0 200 200" style="enable-background:new 0 0 200 200;" xml:space="preserve">
<style type="text/css">
	.st0{fill:#2185C7;}
	.st1{fill:#868686;}
	.st2{fill:#C2272D;}
</style>
<path class="st0" d="M95.6,95.6"/>
<g>
	<g>
		<path class="st0" d="M103.1,52.9l-1.1-4.7c-0.4-1.9-2.7-3-5-2.5l-19.5,4.5c-2.3,0.5-3.9,2.6-3.4,4.5l1.1,4.7L103.1,52.9z
			 M77.8,51.8l19.5-4.5c1.4-0.3,2.9,0.3,3.1,1.3l0.7,3.2l-24.8,5.8l-0.7-3.2C75.4,53.3,76.4,52.1,77.8,51.8z"/>
		<path class="st0" d="M103.7,53.3L74.8,60l-1.2-5.2c-0.3-1.1,0-2.2,0.8-3.2c0.7-0.9,1.8-1.7,3.1-1.9l19.5-4.5
			c2.6-0.6,5.2,0.7,5.7,2.9L103.7,53.3z M75.6,58.8l26.9-6.3l-1-4.2c-0.4-1.6-2.4-2.6-4.4-2.1l-19.5,4.5c-1,0.2-1.9,0.8-2.5,1.5
			c-0.6,0.7-0.8,1.5-0.6,2.3L75.6,58.8z M101.8,52.1l-25.8,6l-0.9-3.7c-0.3-1.3,0.8-2.7,2.5-3.2c0,0,0.1,0,0.1,0l19.5-4.5
			c0.8-0.2,1.6-0.1,2.3,0.2c0.7,0.3,1.3,0.9,1.4,1.5L101.8,52.1z M76.8,56.8l23.8-5.5l-0.6-2.7c-0.1-0.3-0.4-0.6-0.8-0.8
			c-0.5-0.2-1.1-0.2-1.7-0.1L78,52.3c0,0-0.1,0-0.1,0c-1.1,0.3-1.9,1.2-1.8,1.9L76.8,56.8z"/>
	</g>
	<g>
		<path class="st1" d="M74.2,104.5l50.4-11.7l-1.7-7.1L72.5,97.4L74.2,104.5z M121.7,87.5l0.9,4l-47.3,11l-0.9-4L121.7,87.5z"/>
		<path class="st1" d="M125.2,93.1l-0.5,0.1l-50.9,11.9L71.9,97l0.5-0.1L123.3,85L125.2,93.1z M74.6,103.8l49.4-11.5l-1.4-6.1
			L73.2,97.8L74.6,103.8z M123.3,91.9l-0.5,0.1L75,103.2l-1.2-5l0.5-0.1l47.8-11.1L123.3,91.9z M75.8,101.9L122,91.1l-0.7-3L75.1,99
			L75.8,101.9z"/>
	</g>
	<g>
		<path class="st1" d="M144.3,137.3l-19.8-84.9c-0.2-0.8-1-1.3-1.8-1.1L56.8,66.6c-0.8,0.2-1.3,1-1.1,1.8l19.8,84.9l0.1,0.3l0.2,0.2
			c0.1,0.1,0.2,0.3,0.4,0.5c0.2,0.1,0.5,0.2,0.6,0.1l0.3,0.1l66.2-15.4C144,138.9,144.5,138.1,144.3,137.3z M77.1,152.8
			C77,152.8,77,152.8,77.1,152.8C77,152.8,77,152.8,77.1,152.8L57.2,68.2L123,52.8l19.8,84.7L77.1,152.8z"/>
		<path class="st1" d="M143.4,139.6C143.4,139.6,143.3,139.6,143.4,139.6L76.9,155l-0.3-0.1c-0.2,0-0.5,0-0.8-0.2
			c-0.3-0.2-0.5-0.5-0.6-0.6l-0.2-0.3l-0.1-0.3l-19.8-85c-0.1-0.5,0-1.1,0.3-1.5c0.3-0.4,0.7-0.8,1.2-0.9c0,0,0,0,0.1,0l65.9-15.4
			c0.5-0.1,1.1,0,1.5,0.3c0.5,0.3,0.8,0.7,0.9,1.3l19.8,84.9C145.1,138.2,144.4,139.3,143.4,139.6z M77,153.9l66-15.4c0,0,0,0,0,0
			c0.5-0.1,0.8-0.7,0.7-1.2l0,0L124,52.5c-0.1-0.3-0.2-0.5-0.4-0.6c-0.2-0.1-0.5-0.2-0.7-0.1L56.9,67.1c0,0,0,0,0,0
			c-0.2,0.1-0.4,0.2-0.6,0.4c-0.1,0.2-0.2,0.5-0.1,0.7L76,153.2l0.2,0.3c0,0.1,0.1,0.2,0.2,0.3c0.1,0.1,0.2,0.1,0.2,0.1l0.2,0
			L77,153.9z M143.5,137.9L143,138l-66.1,15.3l-0.2,0l-0.2-0.4L56.5,67.8l0.5-0.1l66.4-15.5l0.1,0.5L143.5,137.9z M77.4,152.2
			l64.8-15.1l-19.6-83.7L57.8,68.5L77.4,152.2z"/>
	</g>
	<g>
		<path class="st1" d="M78.8,124.8l50.4-11.7l-1.7-7.1l-50.4,11.7L78.8,124.8z M126.4,107.8l0.9,4l-47.3,11l-0.9-4L126.4,107.8z"/>
		<path class="st1" d="M129.9,113.4l-0.5,0.1l-50.9,11.9l-1.9-8.1l0.5-0.1l50.9-11.9L129.9,113.4z M79.2,124.1l49.4-11.5l-1.4-6.1
			l-49.4,11.5L79.2,124.1z M127.9,112.2l-0.5,0.1l-47.8,11.1l-1.2-5l0.5-0.1l47.8-11.1L127.9,112.2z M80.4,122.2l46.2-10.8l-0.7-3
			l-46.3,10.8L80.4,122.2z"/>
	</g>
	<g>
		<path class="st1" d="M76.5,114.6l50.4-11.7l-1.7-7.1l-50.4,11.7L76.5,114.6z M124,97.7l0.9,4l-47.3,11l-0.9-4L124,97.7z"/>
		<path class="st1" d="M127.5,103.3l-0.5,0.1l-50.9,11.9l-1.9-8.1l0.5-0.1l50.9-11.9L127.5,103.3z M76.9,114l49.4-11.5l-1.4-6.1
			l-49.4,11.5L76.9,114z M125.6,102.1l-0.5,0.1l-47.8,11.1l-1.2-5l0.5-0.1l47.8-11.1L125.6,102.1z M78.1,112.1l46.2-10.8l-0.7-3
			l-46.3,10.8L78.1,112.1z"/>
	</g>
	<g>
		<path class="st2" d="M86.2,80.8l5.3-1.2l1.2,5.2l6.4-1.5l-1.2-5.2l5.2-1.2l-1.5-6.4l-5.2,1.2l-1.2-5.2l-6.4,1.5l1.2,5.2l-5.3,1.2
			L86.2,80.8z M91.9,74.3l-1.2-5.2l3.3-0.8l1.2,5.2l5.2-1.2l0.8,3.3L96,76.9l1.2,5.2l-3.3,0.8l-1.2-5.2l-5.3,1.2l-0.8-3.3L91.9,74.3
			z"/>
		<path class="st2" d="M103.7,77.3l-5.2,1.2l1.2,5.2l-7.4,1.7l-1.2-5.2l-5.3,1.2L84.1,74l5.3-1.2l-1.2-5.2l7.4-1.7l1.2,5.2l5.2-1.2
			 M93.1,84.2l5.4-1.3l-1.2-5.2l5.2-1.2l-1.3-5.4L96,72.3l-1.2-5.2l-5.4,1.3l1.2,5.2l-5.3,1.2l1.3,5.4l5.3-1.2L93.1,84.2z
			 M97.8,82.5l-4.3,1l-1.2-5.2L87,79.5l-1-4.3l5.3-1.2l-1.2-5.2l4.3-1l1.2,5.2l5.2-1.2l1,4.3l-5.2,1.2L97.8,82.5z M94.4,84.3l3-0.7
			l-1.6-6.8l6.8-1.6l-0.7-3l-6.8,1.6L93.5,67l-3,0.7l1.6,6.8l-6.9,1.6l0.7,3l6.9-1.6L94.4,84.3z"/>
	</g>
	<g>
		<path class="st1" d="M81.2,134.9l50.4-11.7l-1.7-7.1l-50.4,11.7L81.2,134.9z M128.7,118l0.9,4l-47.3,11l-0.9-4L128.7,118z"/>
		<path class="st1" d="M132.2,123.6l-0.5,0.1l-50.9,11.9l-1.9-8.1l0.5-0.1l50.9-11.9L132.2,123.6z M81.6,134.3l49.4-11.5l-1.4-6.1
			l-49.4,11.5L81.6,134.3z M130.3,122.4l-0.5,0.1L82,133.6l-1.2-5l0.5-0.1l47.8-11.1L130.3,122.4z M82.7,132.4l46.2-10.8l-0.7-3
			l-46.2,10.8L82.7,132.4z"/>
	</g>
</g>
</svg>
