<?xml version="1.0" encoding="utf-8"?>
<!-- Generator: Adobe Illustrator 26.0.1, SVG Export Plug-In . SVG Version: 6.00 Build 0)  -->
<svg version="1.1" id="Calque_1" xmlns="http://www.w3.org/2000/svg" xmlns:xlink="http://www.w3.org/1999/xlink" x="0px" y="0px"
	 viewBox="0 0 200 200" style="enable-background:new 0 0 200 200;" xml:space="preserve">
<style type="text/css">
	.st0{fill:#2185C7;}
	.st1{fill:#868686;}
</style>
<path class="st0" d="M95.6,95.6"/>
<g>
	<path class="st1" d="M143.1,104.7c0-4.4-3.6-7.9-7.9-7.9c-4.4,0-7.9,3.6-7.9,7.9c0,3.9,2.8,7.2,6.6,7.8l0.4,0.1v16.1
		c0,13.6-11.1,24.7-24.7,24.7c-13.6,0-24.7-11.1-24.7-24.7v-16.1l0.5,0c14.9-0.5,26.6-12.6,26.6-27.5V61.6c0-6.4-4.8-11.9-11.2-12.7
		l-0.4,0l-0.1-0.3C99.9,46.4,98.1,45,96,45c-2.3,0-3.7,1.8-3.7,4.6c0,2.8,1.4,4.6,3.7,4.6c2,0,3.8-1.3,4.4-3.2l0.1-0.4l0.4,0.1
		c5.5,0.9,9.5,5.5,9.5,11v22.6c0,7.9-12,17.6-25.9,17.6c-14,0-25.9-9.7-25.9-17.6V61.6c0-5.5,4.1-10.2,9.5-11l0.4-0.1l0.1,0.4
		c0.6,1.9,2.4,3.2,4.4,3.2c2.3,0,3.7-1.8,3.7-4.6c0-2.8-1.4-4.6-3.7-4.6c-2.1,0-3.9,1.4-4.4,3.5l-0.1,0.3l-0.4,0
		c-6.4,0.8-11.2,6.3-11.2,12.8V85c0,14.5,11.4,26.6,25.8,27.5l0.5,0v16.1c0,14.5,11.8,26.4,26.4,26.4c14.5,0,26.4-11.8,26.4-26.4
		v-16.1l0.4-0.1C140.3,111.8,143.1,108.5,143.1,104.7z M98.7,50.7c-0.5,1.1-1.5,1.8-2.7,1.8c-1.3,0-2-1-2-2.9c0-2,0.7-2.9,2-2.9
		c1.2,0,2.2,0.7,2.7,1.8l0.1,0.3L98.6,49c-0.2,0.2-0.2,0.4-0.2,0.6c0,0.2,0.1,0.4,0.2,0.6l0.2,0.2L98.7,50.7z M70.3,48.5
		c0.4-1.1,1.5-1.9,2.7-1.9c1.3,0,2,1,2,2.9c0,2-0.7,2.9-2,2.9c-1.2,0-2.3-0.7-2.7-1.9l-0.1-0.3l0.2-0.2c0.1-0.1,0.2-0.3,0.2-0.5
		c0-0.2-0.1-0.4-0.2-0.5l-0.2-0.2L70.3,48.5z M60.2,93.9l-1-2.6l1.8,2.1c4.3,4.9,12.8,10.2,23.4,10.2c10.7,0,19.1-5.3,23.4-10.2
		l1.8-2.1l-0.9,2.6c-3.7,10.2-13.5,17-24.3,17C73.7,110.9,63.9,104.1,60.2,93.9z M135.2,110.9c-3.4,0-6.2-2.8-6.2-6.3
		c0-3.4,2.8-6.2,6.2-6.2c3.4,0,6.3,2.8,6.3,6.2C141.4,108.1,138.6,110.9,135.2,110.9z"/>
	<path class="st0" d="M135.2,100.7c-2.2,0-4,1.8-4,4c0,2.2,1.8,4,4,4c2.2,0,4-1.8,4-4C139.1,102.5,137.4,100.7,135.2,100.7z
		 M135.2,107c-1.3,0-2.3-1-2.3-2.3c0-1.3,1-2.3,2.3-2.3c1.3,0,2.3,1,2.3,2.3C137.5,105.9,136.4,107,135.2,107z"/>
</g>
</svg>
