<?xml version="1.0" encoding="utf-8"?>
<!-- Generator: Adobe Illustrator 26.0.1, SVG Export Plug-In . SVG Version: 6.00 Build 0)  -->
<svg version="1.1" id="Calque_1" xmlns="http://www.w3.org/2000/svg" xmlns:xlink="http://www.w3.org/1999/xlink" x="0px" y="0px"
	 viewBox="0 0 200 200" style="enable-background:new 0 0 200 200;" xml:space="preserve">
<style type="text/css">
	.st0{fill:#878787;}
	.st1{fill:#2286C7;}
</style>
<g>
	<path class="st0" d="M69.1,135.9c-0.2,0-0.5-0.1-0.6-0.3l-5.4-5.5c-0.2-0.2-0.3-0.4-0.3-0.6c0-0.2,0.1-0.5,0.3-0.6l6.3-6.2
		c0.4-0.4,1-0.4,1.3,0c0.4,0.4,0.4,1,0,1.3l-5.6,5.6l4.2,4.2l5.6-5.6c0.3-0.4,0.9-0.4,1.3-0.1c0,0,0,0,0.1,0.1
		c0.4,0.3,0.4,0.9,0.1,1.2c0,0-0.1,0.1-0.1,0.1l-6.3,6.2C69.6,135.8,69.3,135.9,69.1,135.9z"/>
	<path class="st0" d="M50.1,152.5c-0.1,0-0.2,0-0.3,0c-0.3-0.1-0.6-0.4-0.6-0.8l-0.4-5.5c0-0.3,0.1-0.5,0.3-0.7L63,131.6
		c0.4-0.3,0.9-0.3,1.3,0c0.3,0.4,0.3,0.9,0,1.3l0,0l-13.7,13.6l0.3,3.2L66,134.5c0.3-0.3,0.9-0.4,1.2,0c0,0,0,0,0,0
		c0.4,0.3,0.4,0.9,0.1,1.3c0,0,0,0-0.1,0.1l-16.6,16.4C50.5,152.4,50.3,152.5,50.1,152.5z"/>
	<path class="st0" d="M114.2,78c-0.2,0-0.5-0.1-0.6-0.3c-0.3-0.3-0.3-0.9,0-1.2l17.9-17.9c0.3-0.4,0.9-0.4,1.3,0
		c0.4,0.3,0.4,0.9,0,1.3l-18,17.9C114.7,77.8,114.5,78,114.2,78z"/>
	<path class="st0" d="M121.6,85.3c-0.2,0-0.5-0.1-0.6-0.2c-0.4-0.3-0.4-0.9-0.1-1.3c0,0,0,0,0.1-0.1l17.9-17.9
		c0.3-0.4,0.9-0.4,1.2-0.1c0,0,0.1,0.1,0.1,0.1c0.4,0.3,0.4,0.9,0.1,1.3c0,0,0,0-0.1,0.1l-17.9,17.9
		C122.1,85.3,121.9,85.4,121.6,85.3z"/>
	<path class="st1" d="M86.8,133.6c-0.1,0-0.2,0-0.3,0l-15.5-5.5c-0.3-0.1-0.5-0.3-0.5-0.5l-5.4-15.5c-0.1-0.3,0-0.7,0.2-0.9
		l38.6-38.6c0.3-0.4,0.9-0.4,1.3-0.1c0,0,0,0,0.1,0.1c0.4,0.3,0.4,0.9,0.1,1.2c0,0-0.1,0.1-0.1,0.1l-38.3,38.1l5.1,14.6l14.6,5.1
		l38.2-38.2c0.4-0.4,1-0.4,1.3,0c0.4,0.4,0.4,1,0,1.3l-38.6,38.5C87.3,133.6,87.1,133.7,86.8,133.6z"/>
	<path class="st0" d="M85.1,128.7c-0.1,0-0.2,0-0.3-0.1l-10-4.2c-0.2-0.1-0.4-0.3-0.5-0.5L70,114c-0.1-0.3-0.1-0.7,0.2-1l9.6-9.6
		c0.4-0.3,0.9-0.3,1.3,0c0.3,0.4,0.3,0.9,0,1.3l-9.2,9.2l3.9,9.1l9.2,3.9l9.1-9.2c0.4-0.4,1-0.4,1.3,0c0.4,0.4,0.4,1,0,1.3l-9.5,9.5
		C85.6,128.7,85.4,128.8,85.1,128.7z"/>
	<path class="st0" d="M96.5,117.3c-0.2,0-0.5-0.1-0.6-0.3l-14.3-14.2c-0.4-0.3-0.4-0.9-0.1-1.3c0,0,0,0,0.1-0.1l3-2.8
		c0.3-0.3,0.9-0.3,1.2,0l14.2,14.2c0.4,0.3,0.4,0.9,0.1,1.3c0,0,0,0-0.1,0.1l-3,2.9C97,117.2,96.7,117.3,96.5,117.3z M83.5,102.2
		l13,13l1.7-1.7l-13-13L83.5,102.2z"/>
	<path class="st1" d="M130.7,103.1c-0.2,0-0.5-0.1-0.6-0.2c-0.4-0.3-0.4-0.9-0.1-1.3c0,0,0,0,0.1-0.1l2-2L99.2,66.6l-2,2
		c-0.3,0.4-0.9,0.4-1.3,0c-0.4-0.3-0.4-0.9,0-1.3l2.6-2.6c0.2-0.2,0.4-0.3,0.6-0.3l0,0c0.2,0,0.5,0.1,0.6,0.3l34.1,34.1
		c0.3,0.3,0.3,0.9,0,1.2l-2.6,2.6C131.1,102.9,130.9,103,130.7,103.1z"/>
	<path class="st0" d="M147.7,72.3c-0.2,0-0.5-0.1-0.6-0.3l-20.4-20.4c-0.2-0.2-0.3-0.4-0.3-0.6c0-0.2,0.1-0.5,0.3-0.6l2.6-2.6
		c0.3-0.3,0.9-0.4,1.2,0c0,0,0,0,0,0l20.4,20.4c0.4,0.3,0.4,0.9,0.1,1.2c0,0-0.1,0.1-0.1,0.1l-2.6,2.6
		C148.1,72.2,147.9,72.3,147.7,72.3z M128.5,51l19.1,19.1l1.4-1.4L130,49.6L128.5,51z"/>
	<path class="st0" d="M96,110.9c-0.2,0-0.5-0.1-0.6-0.3l-7.4-7.4c-0.2-0.2-0.2-0.4-0.2-0.6c0-0.2,0.1-0.5,0.2-0.6l23.9-23.9
		c0.2-0.2,0.4-0.3,0.6-0.3l0,0c0.2,0,0.5,0.1,0.6,0.3l7.4,7.4c0.4,0.3,0.4,0.9,0.1,1.2c0,0-0.1,0.1-0.1,0.1l-23.9,23.8
		C96.5,110.8,96.3,110.9,96,110.9z M89.9,102.6l6.1,6.2l22.7-22.7l-6.1-6.1L89.9,102.6z"/>
</g>
</svg>
