<?xml version="1.0" encoding="utf-8"?>
<!-- Generator: Adobe Illustrator 26.0.1, SVG Export Plug-In . SVG Version: 6.00 Build 0)  -->
<svg version="1.1" id="Calque_1" xmlns="http://www.w3.org/2000/svg" xmlns:xlink="http://www.w3.org/1999/xlink" x="0px" y="0px"
	 viewBox="0 0 200 200" style="enable-background:new 0 0 200 200;" xml:space="preserve">
<style type="text/css">
	.st0{fill:#2185C7;}
	.st1{fill:#868686;}
	.st2{fill:#C2272D;}
</style>
<g>
	<g>
		<path class="st0" d="M101.5,61l-13,0v-0.8c0-0.5,0.4-0.8,0.8-0.8h11.4c0.5,0,0.8,0.4,0.8,0.8V61z"/>
	</g>
	<g>
		<g>
			<path class="st1" d="M61.3,140.6c-8.2,0-14.8-6.7-14.8-14.9c0-8.2,6.7-14.8,14.8-14.8s14.8,6.7,14.8,14.8
				C76.2,133.9,69.5,140.6,61.3,140.6z M61.3,112.5c-7.3,0-13.2,5.9-13.2,13.2c0,7.3,5.9,13.2,13.2,13.2c7.3,0,13.2-5.9,13.2-13.2
				C74.5,118.5,68.6,112.5,61.3,112.5z"/>
		</g>
		<g>
			<path class="st1" d="M61.3,133.4c-4.2,0-7.6-3.4-7.6-7.6c0-4.2,3.4-7.6,7.6-7.6c4.2,0,7.6,3.4,7.6,7.6c0,0.5-0.4,0.8-0.8,0.8
				s-0.8-0.4-0.8-0.8c0-3.3-2.7-6-6-6c-3.3,0-6,2.7-6,6c0,3.3,2.7,6,6,6c0.5,0,0.8,0.4,0.8,0.8C62.1,133,61.8,133.4,61.3,133.4z"/>
		</g>
	</g>
	<g>
		<g>
			<path class="st1" d="M135.3,140.6c-8.2,0-14.8-6.7-14.8-14.9c0-8.2,6.7-14.8,14.8-14.8c8.2,0,14.8,6.7,14.8,14.8
				C150.1,133.9,143.5,140.6,135.3,140.6z M135.3,112.5c-7.3,0-13.2,5.9-13.2,13.2c0,7.3,5.9,13.2,13.2,13.2s13.2-5.9,13.2-13.2
				C148.5,118.5,142.6,112.5,135.3,112.5z"/>
		</g>
		<g>
			<path class="st1" d="M135.3,133.4c-4.2,0-7.6-3.4-7.6-7.6c0-4.2,3.4-7.6,7.6-7.6c4.2,0,7.6,3.4,7.6,7.6c0,0.5-0.4,0.8-0.8,0.8
				c-0.5,0-0.8-0.4-0.8-0.8c0-3.3-2.7-6-6-6c-3.3,0-6,2.7-6,6c0,3.3,2.7,6,6,6c0.5,0,0.8,0.4,0.8,0.8
				C136.1,133,135.7,133.4,135.3,133.4z"/>
		</g>
	</g>
	<g>
		<path class="st1" d="M71.6,96.4c-0.2,0-0.5-0.1-0.6-0.3l-5.3-6.8c-0.2-0.3-0.2-0.7,0-1l14.5-21.5c0.2-0.2,0.4-0.4,0.7-0.4h16.7
			c0.5,0,0.8,0.4,0.8,0.8v28.3c0,0.5-0.4,0.8-0.8,0.8c-0.5,0-0.8-0.4-0.8-0.8V68.2H81.2L67.3,88.8l4.9,6.3c0.3,0.4,0.2,0.9-0.1,1.2
			C72,96.4,71.8,96.4,71.6,96.4z"/>
	</g>
	<g>
		<path class="st1" d="M146.6,96.4c-0.5,0-0.8-0.4-0.8-0.8V68.2h-43.4v27.5c0,0.5-0.4,0.8-0.8,0.8c-0.5,0-0.8-0.4-0.8-0.8V67.3
			c0-0.5,0.4-0.8,0.8-0.8h45.1c0.5,0,0.8,0.4,0.8,0.8v28.3C147.4,96.1,147,96.4,146.6,96.4z"/>
	</g>
	<g>
		<path class="st0" d="M43.3,125h-6.7c-0.5,0-0.8-0.4-0.8-0.8v-12.5c0-0.5,0.4-0.8,0.8-0.8h6.7c0.5,0,0.8,0.4,0.8,0.8
			s-0.4,0.8-0.8,0.8h-5.9v10.8h5.9c0.5,0,0.8,0.4,0.8,0.8C44.1,124.6,43.7,125,43.3,125z"/>
	</g>
	<g>
		<path class="st0" d="M163.5,125h-10.3c-0.5,0-0.8-0.4-0.8-0.8c0-0.5,0.4-0.8,0.8-0.8h9.5v-10.8h-9.5c-0.5,0-0.8-0.4-0.8-0.8
			s0.4-0.8,0.8-0.8h10.3c0.5,0,0.8,0.4,0.8,0.8v12.5C164.3,124.6,163.9,125,163.5,125z"/>
	</g>
	<g>
		<path class="st0" d="M153.1,125h-0.5c-0.5,0-0.8-0.4-0.8-0.8c0-0.5,0.4-0.8,0.8-0.8h0.5c0.5,0,0.8,0.4,0.8,0.8
			C154,124.6,153.6,125,153.1,125z"/>
	</g>
	<g>
		<path class="st0" d="M117.9,125H78.7c-0.5,0-0.8-0.4-0.8-0.8c0-0.5,0.4-0.8,0.8-0.8h39.2c0.5,0,0.8,0.4,0.8,0.8
			C118.7,124.6,118.3,125,117.9,125z"/>
	</g>
	<g>
		<path class="st0" d="M43.9,125h-0.7c-0.5,0-0.8-0.4-0.8-0.8c0-0.5,0.4-0.8,0.8-0.8h0.7c0.5,0,0.8,0.4,0.8,0.8
			C44.7,124.6,44.4,125,43.9,125z"/>
	</g>
	<g>
		<path class="st0" d="M44.9,112.5h-3.4c-0.5,0-0.8-0.4-0.8-0.8v-9.7c0-5.4,4.2-10.9,9.4-12.3l10.9-3l13.2-20.3
			c3.4-5.9,10.9-6.9,15-7.1c0.4,0,0.8,0.3,0.8,0.8c0,0.5-0.3,0.8-0.8,0.8c-3.8,0.1-10.6,1.1-13.7,6.3L62.2,88
			c-0.1,0.2-0.3,0.3-0.5,0.3l-11.2,3.1c-4.5,1.2-8.2,6-8.2,10.7v8.8h2.6c0.5,0,0.8,0.4,0.8,0.8S45.4,112.5,44.9,112.5z"/>
	</g>
	<g>
		<path class="st0" d="M158.5,112.5h-5.4c-0.5,0-0.8-0.4-0.8-0.8s0.4-0.8,0.8-0.8h4.6V78.4c0-9.9-7.1-17.4-16.5-17.4h-40.4
			c-0.5,0-0.8-0.4-0.8-0.8c0-0.5,0.4-0.8,0.8-0.8h40.4c10.3,0,18.1,8.2,18.1,19v33.3C159.3,112.2,159,112.5,158.5,112.5z"/>
	</g>
	<g>
		<path class="st2" d="M128.6,93h-8.3c-0.5,0-0.8-0.4-0.8-0.8v-6h-6c-0.5,0-0.8-0.4-0.8-0.8V77c0-0.5,0.4-0.8,0.8-0.8h6v-6
			c0-0.5,0.4-0.8,0.8-0.8h8.3c0.5,0,0.8,0.4,0.8,0.8v6h6c0.5,0,0.8,0.4,0.8,0.8v8.3c0,0.5-0.4,0.8-0.8,0.8h-6v6
			C129.4,92.7,129,93,128.6,93z M121.1,91.4h6.7v-6c0-0.5,0.4-0.8,0.8-0.8h6v-6.7h-6c-0.5,0-0.8-0.4-0.8-0.8v-6h-6.7v6
			c0,0.5-0.4,0.8-0.8,0.8h-6v6.7h6c0.5,0,0.8,0.4,0.8,0.8V91.4z"/>
	</g>
	<g>
		<path class="st1" d="M155.2,99.1H47.1c-0.5,0-0.8-0.4-0.8-0.8c0-0.5,0.4-0.8,0.8-0.8h108.1c0.5,0,0.8,0.4,0.8,0.8
			C156.1,98.7,155.7,99.1,155.2,99.1z"/>
	</g>
	<g>
		<path class="st1" d="M155.2,104.1H45.5c-0.5,0-0.8-0.4-0.8-0.8s0.4-0.8,0.8-0.8h109.7c0.5,0,0.8,0.4,0.8,0.8
			S155.7,104.1,155.2,104.1z"/>
	</g>
</g>
<path class="st0" d="M92.2,105"/>
</svg>
